<svg xmlns="http://www.w3.org/2000/svg" xmlns:xlink="http://www.w3.org/1999/xlink" width="150" zoomAndPan="magnify" viewBox="0 0 112.5 30.000001" height="40" preserveAspectRatio="xMidYMid meet" version="1.0"><defs><g/><clipPath id="id1"><path d="M 3 14 L 15 14 L 15 29.03125 L 3 29.03125 Z M 3 14 " clip-rule="nonzero"/></clipPath><clipPath id="id2"><path d="M 16 14 L 31 14 L 31 29.03125 L 16 29.03125 Z M 16 14 " clip-rule="nonzero"/></clipPath><clipPath id="id3"><path d="M 32 14 L 37 14 L 37 29.03125 L 32 29.03125 Z M 32 14 " clip-rule="nonzero"/></clipPath><clipPath id="id4"><path d="M 38 14 L 52 14 L 52 29.03125 L 38 29.03125 Z M 38 14 " clip-rule="nonzero"/></clipPath><clipPath id="id5"><path d="M 52 14 L 71 14 L 71 29.03125 L 52 29.03125 Z M 52 14 " clip-rule="nonzero"/></clipPath><clipPath id="id6"><path d="M 107 24 L 108 24 L 108 25 L 107 25 Z M 107 24 " clip-rule="nonzero"/></clipPath><clipPath id="id7"><path d="M 107.023438 24.449219 L 107.015625 24.460938 C 107.015625 24.460938 107.035156 24.445312 107.023438 24.449219 Z M 107.023438 24.449219 " clip-rule="nonzero"/></clipPath><clipPath id="id8"><path d="M 108 19 L 109 19 L 109 20 L 108 20 Z M 108 19 " clip-rule="nonzero"/></clipPath><clipPath id="id9"><path d="M 108.003906 19.828125 L 108.007812 19.84375 C 108.015625 19.851562 108.015625 19.855469 108.003906 19.828125 Z M 108.003906 19.828125 " clip-rule="nonzero"/></clipPath><clipPath id="id10"><path d="M 107 24 L 108 24 L 108 25 L 107 25 Z M 107 24 " clip-rule="nonzero"/></clipPath><clipPath id="id11"><path d="M 107.023438 24.449219 L 107.015625 24.460938 C 107.015625 24.460938 107.035156 24.445312 107.023438 24.449219 Z M 107.023438 24.449219 " clip-rule="nonzero"/></clipPath><clipPath id="id12"><path d="M 108 19 L 109 19 L 109 20 L 108 20 Z M 108 19 " clip-rule="nonzero"/></clipPath><clipPath id="id13"><path d="M 108.003906 19.828125 L 108.007812 19.84375 C 108.015625 19.851562 108.015625 19.855469 108.003906 19.828125 Z M 108.003906 19.828125 " clip-rule="nonzero"/></clipPath><clipPath id="id14"><path d="M 93 16 L 110 16 L 110 28 L 93 28 Z M 93 16 " clip-rule="nonzero"/></clipPath><clipPath id="id15"><path d="M 93.179688 23.234375 C 99.21875 18.5625 103.441406 16.769531 106.101562 16.128906 C 106.28125 16.183594 106.457031 16.253906 106.632812 16.328125 C 107.285156 16.597656 107.898438 16.992188 108.402344 17.488281 C 108.65625 17.738281 108.886719 18.007812 109.078125 18.296875 L 109.152344 18.40625 L 109.21875 18.523438 C 109.265625 18.605469 109.3125 18.683594 109.363281 18.765625 L 109.457031 18.957031 L 109.519531 19.082031 L 109.566406 19.203125 C 109.839844 19.839844 109.96875 20.519531 109.964844 21.175781 C 109.964844 21.839844 109.839844 22.476562 109.613281 23.058594 C 109.394531 23.640625 109.085938 24.171875 108.707031 24.628906 C 108.605469 24.746094 108.523438 24.855469 108.40625 24.964844 C 108.296875 25.074219 108.183594 25.195312 108.09375 25.269531 L 107.945312 25.398438 L 107.910156 25.429688 C 107.921875 25.417969 107.875 25.460938 107.875 25.460938 L 107.851562 25.476562 L 107.769531 25.539062 C 107.660156 25.621094 107.546875 25.707031 107.429688 25.78125 C 106.515625 26.398438 105.53125 26.753906 104.582031 26.949219 C 104.105469 27.050781 103.640625 27.101562 103.183594 27.121094 C 103.066406 27.128906 102.953125 27.128906 102.84375 27.132812 C 102.785156 27.132812 102.730469 27.132812 102.675781 27.132812 C 102.617188 27.128906 102.5625 27.128906 102.5 27.128906 C 102.390625 27.121094 102.277344 27.121094 102.175781 27.113281 C 102.125 27.109375 102.070312 27.105469 102.019531 27.101562 L 101.945312 27.097656 L 101.925781 27.089844 C 101.925781 27.089844 101.894531 27.089844 101.898438 27.089844 L 101.855469 27.085938 C 101.011719 26.996094 100.238281 26.816406 99.546875 26.585938 C 98.859375 26.347656 98.25 26.066406 97.726562 25.765625 C 97.664062 25.726562 97.601562 25.691406 97.539062 25.65625 C 97.476562 25.613281 97.414062 25.574219 97.355469 25.539062 C 97.234375 25.460938 97.113281 25.386719 97.007812 25.308594 C 96.902344 25.230469 96.796875 25.15625 96.695312 25.082031 C 96.597656 25.003906 96.5 24.929688 96.40625 24.855469 C 96.316406 24.785156 96.234375 24.707031 96.15625 24.640625 C 96.074219 24.566406 95.996094 24.496094 95.925781 24.433594 C 95.78125 24.292969 95.652344 24.171875 95.542969 24.050781 C 95.433594 23.929688 95.339844 23.824219 95.257812 23.734375 C 95.175781 23.640625 95.117188 23.558594 95.066406 23.496094 C 95 23.414062 94.949219 23.347656 94.914062 23.308594 L 95.183594 23.070312 C 95.21875 23.113281 95.273438 23.171875 95.347656 23.25 C 95.40625 23.308594 95.472656 23.386719 95.558594 23.46875 C 95.640625 23.546875 95.738281 23.640625 95.84375 23.746094 C 95.957031 23.84375 96.09375 23.953125 96.234375 24.074219 C 96.308594 24.132812 96.382812 24.191406 96.464844 24.253906 C 96.542969 24.316406 96.625 24.382812 96.722656 24.445312 C 96.8125 24.503906 96.90625 24.566406 97.003906 24.632812 C 97.105469 24.695312 97.210938 24.761719 97.316406 24.828125 C 97.421875 24.898438 97.539062 24.953125 97.652344 25.019531 C 97.714844 25.050781 97.773438 25.082031 97.832031 25.113281 C 97.894531 25.144531 97.957031 25.171875 98.019531 25.203125 C 98.527344 25.449219 99.117188 25.671875 99.769531 25.84375 C 100.421875 26.019531 101.144531 26.132812 101.917969 26.160156 L 101.957031 26.164062 C 101.972656 26.164062 101.957031 26.164062 101.96875 26.164062 L 102.0625 26.164062 C 102.109375 26.164062 102.160156 26.164062 102.214844 26.164062 C 102.324219 26.164062 102.414062 26.160156 102.507812 26.160156 C 102.554688 26.15625 102.605469 26.15625 102.652344 26.15625 C 102.703125 26.148438 102.75 26.140625 102.800781 26.140625 C 102.898438 26.132812 103.003906 26.128906 103.105469 26.113281 C 103.507812 26.066406 103.917969 25.992188 104.332031 25.875 C 105.148438 25.648438 105.972656 25.28125 106.683594 24.734375 C 106.777344 24.664062 106.863281 24.589844 106.945312 24.519531 L 107.007812 24.460938 L 107.015625 24.460938 C 107.015625 24.460938 107.035156 24.445312 107.023438 24.449219 L 107.015625 24.460938 C 107.015625 24.460938 107.015625 24.457031 107.023438 24.449219 L 107.054688 24.417969 L 107.191406 24.285156 C 107.296875 24.191406 107.347656 24.117188 107.417969 24.039062 C 107.484375 23.964844 107.546875 23.871094 107.617188 23.78125 C 107.878906 23.417969 108.089844 23.007812 108.222656 22.570312 C 108.503906 21.695312 108.457031 20.71875 108.042969 19.90625 L 108.007812 19.84375 C 108.015625 19.851562 108.015625 19.855469 108.003906 19.828125 L 108.007812 19.84375 C 108.007812 19.839844 108.003906 19.828125 108.003906 19.828125 L 107.988281 19.808594 L 107.960938 19.761719 L 107.859375 19.570312 L 107.761719 19.445312 L 107.722656 19.382812 L 107.667969 19.308594 C 107.527344 19.125 107.359375 18.957031 107.1875 18.804688 C 106.835938 18.492188 106.417969 18.253906 105.949219 18.09375 C 105.011719 17.765625 103.902344 17.722656 102.800781 17.902344 C 102.25 17.988281 101.699219 18.128906 101.164062 18.3125 C 101.035156 18.367188 100.898438 18.414062 100.773438 18.464844 L 100.671875 18.507812 L 100.582031 18.542969 L 100.363281 18.644531 L 100.144531 18.738281 C 100.070312 18.769531 100.011719 18.808594 99.945312 18.839844 C 99.808594 18.902344 99.675781 18.964844 99.546875 19.035156 C 98.457031 19.582031 97.386719 20.230469 96.332031 20.949219 C 95.804688 21.300781 95.28125 21.675781 94.753906 22.058594 C 94.230469 22.441406 93.707031 22.832031 93.179688 23.234375 Z M 93.179688 23.234375 " clip-rule="nonzero"/></clipPath><clipPath id="id16"><path d="M 74 15 L 107 15 L 107 29.03125 L 74 29.03125 Z M 74 15 " clip-rule="nonzero"/></clipPath><clipPath id="id17"><path d="M 84.429688 25.128906 C 84.617188 25.058594 84.800781 24.984375 84.988281 24.914062 C 86.128906 24.449219 87.25 23.855469 88.355469 23.195312 C 88.90625 22.867188 89.453125 22.519531 89.992188 22.160156 C 90.265625 21.980469 90.535156 21.796875 90.804688 21.617188 C 91.078125 21.429688 91.351562 21.238281 91.625 21.050781 C 92.722656 20.296875 93.839844 19.542969 94.992188 18.84375 C 96.144531 18.140625 97.332031 17.488281 98.570312 16.941406 C 98.726562 16.871094 98.890625 16.808594 99.054688 16.738281 C 99.132812 16.707031 99.214844 16.671875 99.289062 16.640625 L 99.507812 16.554688 L 99.734375 16.472656 L 99.867188 16.425781 L 99.992188 16.375 C 100.160156 16.320312 100.328125 16.265625 100.496094 16.214844 C 101.171875 16.019531 101.851562 15.882812 102.539062 15.8125 C 102.878906 15.777344 103.226562 15.761719 103.570312 15.761719 C 103.742188 15.753906 103.917969 15.765625 104.089844 15.773438 C 104.261719 15.789062 104.433594 15.792969 104.609375 15.8125 C 104.78125 15.835938 104.949219 15.859375 105.121094 15.886719 C 105.292969 15.925781 105.460938 15.957031 105.636719 15.996094 C 105.792969 16.035156 105.949219 16.082031 106.101562 16.128906 C 103.441406 16.769531 99.21875 18.5625 93.179688 23.234375 C 92.914062 23.429688 92.648438 23.628906 92.382812 23.828125 C 92.105469 24.035156 91.832031 24.234375 91.558594 24.433594 C 91.003906 24.832031 90.441406 25.226562 89.867188 25.605469 C 88.710938 26.371094 87.511719 27.085938 86.234375 27.710938 C 85.652344 27.996094 85.042969 28.257812 84.425781 28.492188 C 84.367188 28.511719 84.308594 28.53125 84.246094 28.554688 C 83.5625 28.800781 82.84375 29.007812 82.097656 29.144531 C 81.355469 29.285156 80.574219 29.355469 79.773438 29.324219 C 78.976562 29.289062 78.15625 29.144531 77.375 28.871094 C 76.988281 28.734375 76.613281 28.566406 76.25 28.363281 C 75.882812 28.171875 75.542969 27.945312 75.222656 27.703125 C 74.898438 27.460938 74.597656 27.195312 74.328125 26.917969 L 74.195312 26.785156 C 74.175781 26.757812 74.210938 26.808594 74.136719 26.722656 L 74.097656 26.679688 L 74.042969 26.617188 C 76.941406 28.316406 80.402344 27.820312 84.429688 25.128906 Z M 84.429688 25.128906 " clip-rule="nonzero"/></clipPath><clipPath id="id18"><path d="M 71.566406 13 L 93 13 L 93 28 L 71.566406 28 Z M 71.566406 13 " clip-rule="nonzero"/></clipPath><clipPath id="id19"><path d="M 71.957031 21.027344 C 71.957031 20.933594 71.960938 20.839844 71.96875 20.746094 C 71.972656 20.644531 71.976562 20.550781 71.988281 20.457031 C 71.996094 20.359375 72.003906 20.265625 72.015625 20.171875 C 72.027344 20.074219 72.042969 19.976562 72.058594 19.882812 L 72.082031 19.746094 L 72.109375 19.601562 C 72.128906 19.507812 72.148438 19.414062 72.167969 19.320312 C 72.351562 18.578125 72.640625 17.855469 73.039062 17.214844 C 73.230469 16.886719 73.460938 16.582031 73.703125 16.296875 C 73.765625 16.226562 73.828125 16.160156 73.886719 16.09375 C 73.917969 16.058594 73.949219 16.023438 73.984375 15.988281 L 74.085938 15.890625 C 74.152344 15.828125 74.21875 15.765625 74.285156 15.703125 C 74.351562 15.640625 74.421875 15.582031 74.492188 15.523438 C 74.773438 15.289062 75.070312 15.082031 75.371094 14.894531 C 75.375 14.894531 75.441406 14.851562 75.421875 14.859375 L 75.449219 14.851562 L 75.488281 14.824219 L 75.578125 14.773438 C 75.640625 14.738281 75.6875 14.714844 75.777344 14.667969 C 75.933594 14.582031 76.097656 14.496094 76.238281 14.433594 C 77.414062 13.902344 78.582031 13.628906 79.699219 13.519531 C 80.257812 13.460938 80.808594 13.441406 81.34375 13.460938 L 81.390625 13.460938 L 81.445312 13.464844 L 81.484375 13.464844 C 81.484375 13.464844 81.570312 13.464844 81.542969 13.464844 L 81.5625 13.472656 C 81.625 13.476562 81.683594 13.480469 81.742188 13.480469 C 81.859375 13.492188 81.976562 13.5 82.09375 13.507812 C 82.152344 13.515625 82.210938 13.519531 82.273438 13.523438 C 82.335938 13.53125 82.398438 13.539062 82.464844 13.546875 C 82.589844 13.558594 82.71875 13.574219 82.84375 13.585938 C 83.101562 13.613281 83.332031 13.660156 83.566406 13.699219 C 83.679688 13.71875 83.800781 13.734375 83.917969 13.761719 C 84.027344 13.785156 84.144531 13.808594 84.257812 13.835938 C 84.371094 13.859375 84.480469 13.882812 84.589844 13.902344 C 84.699219 13.929688 84.808594 13.960938 84.917969 13.988281 C 85.132812 14.050781 85.347656 14.097656 85.550781 14.167969 C 85.757812 14.234375 85.960938 14.292969 86.15625 14.359375 C 86.351562 14.429688 86.542969 14.5 86.730469 14.570312 C 86.921875 14.640625 87.097656 14.71875 87.277344 14.792969 C 87.367188 14.832031 87.457031 14.867188 87.542969 14.902344 C 87.628906 14.945312 87.710938 14.984375 87.796875 15.023438 C 87.964844 15.101562 88.125 15.175781 88.28125 15.261719 C 88.441406 15.339844 88.59375 15.421875 88.738281 15.503906 C 88.890625 15.578125 89.03125 15.660156 89.167969 15.746094 C 89.308594 15.828125 89.441406 15.910156 89.570312 15.988281 C 89.824219 16.15625 90.070312 16.308594 90.285156 16.464844 C 90.503906 16.625 90.710938 16.769531 90.894531 16.914062 C 91.074219 17.0625 91.242188 17.203125 91.394531 17.324219 C 91.542969 17.457031 91.679688 17.578125 91.792969 17.6875 C 91.855469 17.738281 91.910156 17.789062 91.960938 17.839844 C 92.015625 17.890625 92.0625 17.933594 92.105469 17.976562 C 92.191406 18.0625 92.261719 18.136719 92.320312 18.199219 C 92.394531 18.273438 92.453125 18.335938 92.496094 18.375 L 92.277344 18.65625 C 92.226562 18.628906 92.15625 18.589844 92.0625 18.539062 C 91.988281 18.5 91.902344 18.453125 91.800781 18.390625 C 91.746094 18.363281 91.691406 18.335938 91.632812 18.304688 C 91.570312 18.269531 91.503906 18.238281 91.4375 18.203125 C 91.296875 18.132812 91.144531 18.054688 90.976562 17.964844 C 90.804688 17.890625 90.617188 17.804688 90.414062 17.707031 C 90.21875 17.613281 89.992188 17.523438 89.761719 17.429688 C 89.523438 17.335938 89.273438 17.238281 89.011719 17.140625 C 88.476562 16.960938 87.890625 16.761719 87.230469 16.609375 C 86.578125 16.445312 85.871094 16.296875 85.113281 16.207031 C 84.921875 16.175781 84.730469 16.167969 84.53125 16.144531 C 84.433594 16.136719 84.335938 16.128906 84.238281 16.117188 C 84.140625 16.113281 84.039062 16.105469 83.9375 16.101562 C 83.835938 16.097656 83.734375 16.089844 83.632812 16.082031 C 83.53125 16.078125 83.429688 16.082031 83.324219 16.078125 C 83.121094 16.078125 82.90625 16.066406 82.707031 16.078125 C 82.605469 16.078125 82.503906 16.078125 82.402344 16.082031 C 82.351562 16.082031 82.296875 16.082031 82.246094 16.085938 C 82.191406 16.089844 82.132812 16.09375 82.074219 16.09375 C 81.957031 16.097656 81.839844 16.105469 81.722656 16.113281 C 81.660156 16.117188 81.601562 16.121094 81.542969 16.125 L 81.523438 16.128906 C 81.480469 16.128906 81.546875 16.128906 81.53125 16.128906 L 81.492188 16.132812 L 81.464844 16.132812 C 81.460938 16.132812 81.460938 16.132812 81.449219 16.132812 L 81.410156 16.140625 C 80.988281 16.1875 80.5625 16.25 80.132812 16.34375 C 79.707031 16.445312 79.285156 16.570312 78.871094 16.71875 C 78.457031 16.875 78.050781 17.066406 77.675781 17.289062 C 77.574219 17.339844 77.507812 17.390625 77.421875 17.441406 C 77.390625 17.457031 77.324219 17.503906 77.273438 17.539062 L 77.1875 17.597656 L 77.140625 17.628906 L 77.121094 17.640625 C 77.089844 17.660156 77.144531 17.628906 77.136719 17.632812 C 76.976562 17.753906 76.832031 17.875 76.695312 18.011719 L 76.597656 18.117188 L 76.5 18.230469 L 76.453125 18.28125 C 76.441406 18.300781 76.425781 18.320312 76.414062 18.339844 C 76.382812 18.378906 76.355469 18.414062 76.324219 18.449219 C 76.214844 18.609375 76.109375 18.769531 76.023438 18.945312 C 75.839844 19.292969 75.71875 19.675781 75.648438 20.082031 C 75.574219 20.488281 75.558594 20.917969 75.601562 21.351562 C 75.621094 21.566406 75.65625 21.78125 75.703125 21.996094 C 75.75 22.210938 75.820312 22.421875 75.894531 22.632812 C 75.972656 22.839844 76.066406 23.042969 76.164062 23.246094 C 76.191406 23.292969 76.222656 23.339844 76.25 23.386719 C 76.277344 23.433594 76.300781 23.488281 76.332031 23.527344 L 76.421875 23.671875 L 76.515625 23.808594 C 76.53125 23.828125 76.554688 23.855469 76.5625 23.871094 L 76.605469 23.921875 L 76.644531 23.976562 C 76.660156 23.992188 76.664062 24.003906 76.695312 24.039062 L 76.847656 24.210938 L 76.875 24.238281 L 76.882812 24.253906 L 76.945312 24.316406 C 77.113281 24.492188 77.28125 24.65625 77.464844 24.796875 C 77.820312 25.089844 78.210938 25.328125 78.632812 25.503906 C 79.054688 25.675781 79.515625 25.796875 80.011719 25.855469 C 80.511719 25.90625 81.039062 25.902344 81.589844 25.84375 C 82.140625 25.78125 82.707031 25.664062 83.273438 25.507812 C 83.660156 25.398438 84.042969 25.269531 84.429688 25.128906 C 80.402344 27.820312 76.941406 28.316406 74.042969 26.617188 L 73.9375 26.5 C 73.917969 26.480469 73.875 26.429688 73.839844 26.386719 L 73.734375 26.253906 L 73.625 26.121094 C 73.59375 26.082031 73.566406 26.039062 73.535156 25.996094 C 72.574219 24.691406 72.050781 23.144531 71.96875 21.609375 C 71.957031 21.417969 71.957031 21.222656 71.957031 21.027344 Z M 71.957031 21.027344 " clip-rule="nonzero"/></clipPath></defs><g clip-path="url(#id1)"><g fill="#ffffff" fill-opacity="1"><g transform="translate(1.572579, 29.790403)"><g><path d="M 13.03125 -12.390625 L 5.484375 -12.390625 L 5.484375 -8.8125 L 12.4375 -8.8125 L 12.4375 -5.703125 L 5.484375 -5.703125 L 5.484375 0 L 1.546875 0 L 1.546875 -15.484375 L 13.03125 -15.484375 Z M 13.03125 -12.390625 "/></g></g></g></g><g clip-path="url(#id2)"><g fill="#ffffff" fill-opacity="1"><g transform="translate(14.929348, 29.790403)"><g><path d="M 10.890625 0 L 8.578125 -4.359375 L 5.484375 -4.359375 L 5.484375 0 L 1.546875 0 L 1.546875 -15.484375 L 8.46875 -15.484375 C 10.519531 -15.484375 12.101562 -15.015625 13.21875 -14.078125 C 14.34375 -13.140625 14.90625 -11.8125 14.90625 -10.09375 C 14.90625 -7.695312 13.972656 -6.035156 12.109375 -5.109375 L 15.359375 0 Z M 5.484375 -7.453125 L 8.46875 -7.453125 C 9.320312 -7.453125 9.984375 -7.664062 10.453125 -8.09375 C 10.929688 -8.519531 11.171875 -9.140625 11.171875 -9.953125 C 11.171875 -10.753906 10.929688 -11.359375 10.453125 -11.765625 C 9.984375 -12.179688 9.320312 -12.390625 8.46875 -12.390625 L 5.484375 -12.390625 Z M 5.484375 -7.453125 "/></g></g></g></g><g clip-path="url(#id3)"><g fill="#ffffff" fill-opacity="1"><g transform="translate(30.939772, 29.790403)"><g><path d="M 5.484375 0 L 1.546875 0 L 1.546875 -15.484375 L 5.484375 -15.484375 Z M 5.484375 0 "/></g></g></g></g><g clip-path="url(#id4)"><g fill="#ffffff" fill-opacity="1"><g transform="translate(37.971978, 29.790403)"><g><path d="M 7.5 -15.671875 C 9.8125 -15.671875 11.847656 -15.09375 13.609375 -13.9375 L 12.125 -10.859375 C 11.3125 -11.335938 10.441406 -11.726562 9.515625 -12.03125 C 8.585938 -12.332031 7.804688 -12.484375 7.171875 -12.484375 C 6.035156 -12.484375 5.46875 -12.101562 5.46875 -11.34375 C 5.46875 -10.863281 5.742188 -10.472656 6.296875 -10.171875 C 6.859375 -9.878906 7.539062 -9.625 8.34375 -9.40625 C 9.15625 -9.195312 9.960938 -8.941406 10.765625 -8.640625 C 11.566406 -8.335938 12.25 -7.847656 12.8125 -7.171875 C 13.375 -6.492188 13.65625 -5.640625 13.65625 -4.609375 C 13.65625 -3.117188 13.070312 -1.957031 11.90625 -1.125 C 10.738281 -0.289062 9.253906 0.125 7.453125 0.125 C 6.171875 0.125 4.898438 -0.09375 3.640625 -0.53125 C 2.390625 -0.96875 1.300781 -1.570312 0.375 -2.34375 L 1.90625 -5.375 C 2.6875 -4.695312 3.609375 -4.140625 4.671875 -3.703125 C 5.734375 -3.265625 6.675781 -3.046875 7.5 -3.046875 C 8.132812 -3.046875 8.628906 -3.160156 8.984375 -3.390625 C 9.335938 -3.617188 9.515625 -3.957031 9.515625 -4.40625 C 9.515625 -4.832031 9.3125 -5.1875 8.90625 -5.46875 C 8.5 -5.757812 7.992188 -5.972656 7.390625 -6.109375 C 6.785156 -6.253906 6.128906 -6.441406 5.421875 -6.671875 C 4.710938 -6.910156 4.054688 -7.171875 3.453125 -7.453125 C 2.847656 -7.734375 2.34375 -8.179688 1.9375 -8.796875 C 1.53125 -9.410156 1.328125 -10.144531 1.328125 -11 C 1.328125 -12.414062 1.890625 -13.546875 3.015625 -14.390625 C 4.148438 -15.242188 5.644531 -15.671875 7.5 -15.671875 Z M 7.5 -15.671875 "/></g></g></g></g><g clip-path="url(#id5)"><g fill="#ffffff" fill-opacity="1"><g transform="translate(52.213294, 29.790403)"><g><path d="M 16.65625 -0.484375 L 18.046875 1.953125 C 17.460938 2.484375 16.765625 2.898438 15.953125 3.203125 C 15.140625 3.503906 14.34375 3.65625 13.5625 3.65625 C 12.5 3.65625 11.53125 3.347656 10.65625 2.734375 C 9.789062 2.117188 9.097656 1.265625 8.578125 0.171875 C 6.265625 0.0976562 4.34375 -0.6875 2.8125 -2.1875 C 1.289062 -3.695312 0.53125 -5.554688 0.53125 -7.765625 C 0.53125 -10.023438 1.328125 -11.898438 2.921875 -13.390625 C 4.515625 -14.878906 6.503906 -15.625 8.890625 -15.625 C 11.296875 -15.625 13.296875 -14.875 14.890625 -13.375 C 16.484375 -11.875 17.28125 -10.003906 17.28125 -7.765625 C 17.28125 -6.066406 16.8125 -4.550781 15.875 -3.21875 C 14.9375 -1.894531 13.6875 -0.945312 12.125 -0.375 C 12.6875 0.332031 13.3125 0.6875 14 0.6875 C 14.757812 0.6875 15.644531 0.296875 16.65625 -0.484375 Z M 5.84375 -11 C 4.988281 -10.125 4.5625 -9.035156 4.5625 -7.734375 C 4.5625 -6.441406 4.988281 -5.347656 5.84375 -4.453125 C 6.707031 -3.566406 7.738281 -3.125 8.9375 -3.125 C 10.132812 -3.125 11.148438 -3.566406 11.984375 -4.453125 C 12.816406 -5.347656 13.234375 -6.441406 13.234375 -7.734375 C 13.234375 -9.035156 12.816406 -10.125 11.984375 -11 C 11.148438 -11.882812 10.132812 -12.328125 8.9375 -12.328125 C 7.726562 -12.328125 6.695312 -11.882812 5.84375 -11 Z M 5.84375 -11 "/></g></g></g></g><g clip-path="url(#id6)"><g clip-path="url(#id7)"><path fill="#ffffff" d="M 107.035156 24.460938 L 107.035156 24.445312 L 107.015625 24.445312 L 107.015625 24.460938 Z M 107.035156 24.460938 " fill-opacity="1" fill-rule="nonzero"/></g></g><g clip-path="url(#id8)"><g clip-path="url(#id9)"><path fill="#ffffff" d="M 108.015625 19.855469 L 108.015625 19.828125 L 108.003906 19.828125 L 108.003906 19.855469 Z M 108.015625 19.855469 " fill-opacity="1" fill-rule="nonzero"/></g></g><g clip-path="url(#id10)"><g clip-path="url(#id11)"><path fill="#ffffff" d="M 107.035156 24.460938 L 107.035156 24.445312 L 107.015625 24.445312 L 107.015625 24.460938 Z M 107.035156 24.460938 " fill-opacity="1" fill-rule="nonzero"/></g></g><g clip-path="url(#id12)"><g clip-path="url(#id13)"><path fill="#ffffff" d="M 108.015625 19.855469 L 108.015625 19.828125 L 108.003906 19.828125 L 108.003906 19.855469 Z M 108.015625 19.855469 " fill-opacity="1" fill-rule="nonzero"/></g></g><g clip-path="url(#id14)"><g clip-path="url(#id15)"><path fill="#ffffff" d="M 109.96875 27.132812 L 109.96875 16.128906 L 93.179688 16.128906 L 93.179688 27.132812 Z M 109.96875 27.132812 " fill-opacity="1" fill-rule="nonzero"/></g></g><g clip-path="url(#id16)"><g clip-path="url(#id17)"><path fill="#ffffff" d="M 106.101562 29.03125 L 106.101562 15.753906 L 74.042969 15.753906 L 74.042969 29.03125 Z M 106.101562 29.03125 " fill-opacity="1" fill-rule="nonzero"/></g></g><g clip-path="url(#id18)"><g clip-path="url(#id19)"><path fill="#ffffff" d="M 92.496094 28.316406 L 92.496094 13.441406 L 71.957031 13.441406 L 71.957031 28.316406 Z M 92.496094 28.316406 " fill-opacity="1" fill-rule="nonzero"/></g></g></svg>