<svg version="1.2" xmlns="http://www.w3.org/2000/svg" viewBox="0 0 1000 800" width="1000" height="800"><defs><linearGradient id="P" gradientUnits="userSpaceOnUse"/><linearGradient id="g1" x1="806.4" y1="456.8" x2="806.6" y2="456.8" href="#P"><stop stop-color="#2aa4dd"/><stop offset=".5" stop-color="#2177b7"/><stop offset="1" stop-color="#29418e"/></linearGradient><linearGradient id="g2" x1="825.3" y1="368.8" x2="825.4" y2="368.8" href="#P"><stop stop-color="#2aa4dd"/><stop offset=".5" stop-color="#2177b7"/><stop offset="1" stop-color="#29418e"/></linearGradient><linearGradient id="g3" x1="806.4" y1="456.8" x2="806.6" y2="456.8" href="#P"><stop stop-color="#2aa4dd"/><stop offset=".5" stop-color="#2177b7"/><stop offset="1" stop-color="#29418e"/></linearGradient><linearGradient id="g4" x1="825.3" y1="368.8" x2="825.4" y2="368.8" href="#P"><stop stop-color="#2aa4dd"/><stop offset=".5" stop-color="#2177b7"/><stop offset="1" stop-color="#29418e"/></linearGradient><linearGradient id="g5" x1="618.2" y1="530.9" x2="527.5" y2="442.9" href="#P"><stop stop-color="#fff"/><stop offset=".5" stop-color="#fff"/><stop offset="1" stop-color="#fff"/></linearGradient><linearGradient id="g6" x1="654.6" y1="417.4" x2="164.2" y2="673.6" href="#P"><stop stop-color="#fff"/><stop offset=".5" stop-color="#fff"/><stop offset="1" stop-color="#fff"/></linearGradient><linearGradient id="g7" x1="253" y1="628.8" x2="96.4" y2="366" href="#P"><stop stop-color="#fff"/><stop offset=".5" stop-color="#fff"/><stop offset="1" stop-color="#fff"/></linearGradient></defs><style>.a{fill:url(#g1)}.b{fill:url(#g2)}.c{fill:url(#g3)}.d{fill:url(#g4)}.e{fill:url(#g5)}.f{fill:url(#g6)}.g{fill:url(#g7)}</style><path class="a" d="m806.5 458.1l-0.2 0.2c0 0 0.4-0.3 0.2-0.2z"/><path class="b" d="m825.2 370.3l0.1 0.3c0.1 0.1 0.1 0.2-0.1-0.3z"/><path class="c" d="m806.5 458.1l-0.2 0.2c0 0 0.4-0.3 0.2-0.2z"/><path class="d" d="m825.2 370.3l0.1 0.3c0.1 0.1 0.1 0.2-0.1-0.3z"/><path class="e" d="m542.3 435c115.3-88.8 195.8-122.8 246.6-135q5.1 1.6 10.1 3.8c12.5 5.1 24.2 12.6 33.8 22 4.8 4.8 9.2 9.9 12.9 15.4l1.4 2.1 1.3 2.2q1.3 2.3 2.7 4.6l1.8 3.6 1.2 2.4 0.9 2.3c5.2 12.1 7.7 25 7.6 37.5 0 12.6-2.4 24.7-6.7 35.8-4.2 11-10.1 21.1-17.3 29.8-1.9 2.2-3.5 4.3-5.7 6.4-2.1 2.1-4.3 4.4-6 5.8l-2.8 2.4-0.7 0.6c0.2-0.2-0.7 0.6-0.7 0.6l-0.4 0.3-1.6 1.2c-2.1 1.6-4.2 3.2-6.5 4.6-17.4 11.7-36.2 18.5-54.3 22.2-9.1 1.9-18 2.9-26.7 3.3-2.2 0.1-4.4 0.1-6.5 0.2q-1.6 0-3.2 0-1.6-0.1-3.3-0.1c-2.1-0.1-4.3-0.1-6.2-0.3q-1.5-0.1-3-0.2l-1.4-0.1-0.4-0.1c0 0-0.6 0-0.5 0l-0.8-0.1c-16.1-1.7-30.9-5.1-44.1-9.5-13.1-4.5-24.7-9.9-34.7-15.6q-1.8-1.1-3.6-2.1-1.8-1.2-3.5-2.2c-2.3-1.5-4.6-2.9-6.6-4.4q-3.1-2.2-6-4.3-2.8-2.2-5.5-4.3c-1.7-1.3-3.3-2.8-4.8-4.1q-2.3-2.1-4.4-3.9c-2.7-2.7-5.2-5-7.3-7.3q-3.1-3.4-5.4-6c-1.6-1.8-2.7-3.3-3.7-4.5q-1.9-2.4-2.9-3.6l5.2-4.5q1 1.2 3.1 3.4c1.1 1.1 2.4 2.6 4 4.2q2.4 2.2 5.5 5.2c2.1 1.9 4.7 4 7.4 6.3q2.1 1.6 4.4 3.4c1.5 1.2 3.1 2.4 4.9 3.6q2.6 1.7 5.4 3.6 2.9 1.8 6 3.7c2 1.3 4.2 2.4 6.4 3.6q1.7 0.9 3.4 1.8c1.2 0.6 2.4 1.1 3.6 1.7 9.7 4.7 20.9 8.9 33.4 12.2 12.4 3.3 26.2 5.5 41 6l0.7 0.1c0.3 0 0 0 0.2 0h0.3 1.5q1.4 0 2.9 0c2.1 0 3.8-0.1 5.6-0.1q1.4-0.1 2.8-0.1 1.4-0.2 2.8-0.3c1.9-0.1 3.9-0.2 5.8-0.5 7.7-0.9 15.5-2.3 23.4-4.5 15.6-4.3 31.3-11.3 44.9-21.7 1.8-1.3 3.4-2.7 5-4.1l1.2-1.1h0.1c0 0 0.4-0.3 0.2-0.2l-0.2 0.2q0 0 0.2-0.2l0.6-0.6 2.6-2.5c2-1.8 3-3.2 4.3-4.7 1.3-1.4 2.5-3.2 3.8-4.9 5-6.9 9-14.7 11.6-23 5.3-16.6 4.4-35.2-3.5-50.6l-0.6-1.2c0.1 0.1 0.1 0.2-0.1-0.3l0.1 0.3c0-0.1-0.1-0.3-0.1-0.3l-0.3-0.4-0.5-0.9-2-3.6-1.8-2.4-0.8-1.2-1-1.4c-2.7-3.5-5.9-6.7-9.2-9.6-6.7-5.9-14.7-10.4-23.6-13.5-17.9-6.2-39.1-7-60.1-3.6-10.5 1.6-21 4.3-31.2 7.8-2.5 1-5.1 1.9-7.5 2.9l-1.9 0.8-1.7 0.7-4.2 1.9-4.2 1.8c-1.4 0.6-2.5 1.3-3.8 1.9-2.6 1.2-5.1 2.4-7.6 3.7-20.8 10.4-41.2 22.7-61.3 36.4-10.1 6.7-20.1 13.8-30.1 21.1q-15 10.9-30.1 22.3z"/><path class="f" d="m376.4 471q5.3-2 10.6-4.1c21.8-8.8 43.2-20.1 64.3-32.6 10.5-6.3 20.9-12.9 31.2-19.7 5.2-3.4 10.4-6.9 15.5-10.3q7.8-5.4 15.7-10.8c20.9-14.3 42.2-28.6 64.2-41.9 22-13.4 44.7-25.8 68.3-36.2 3-1.3 6.1-2.5 9.2-3.8 1.5-0.6 3.1-1.3 4.5-1.9l4.2-1.6 4.3-1.6 2.5-0.9 2.4-0.9c3.2-1.1 6.4-2.1 9.6-3.1 12.9-3.7 25.9-6.3 39-7.6q9.8-1 19.7-1c3.3-0.1 6.6 0.1 9.9 0.2 3.3 0.3 6.6 0.4 9.9 0.8 3.3 0.4 6.5 0.9 9.8 1.4 3.3 0.7 6.5 1.3 9.8 2.1q4.5 1.1 8.9 2.5c-50.8 12.2-131.3 46.2-246.6 135q-7.6 5.6-15.2 11.3c-5.3 3.9-10.5 7.7-15.7 11.5-10.6 7.6-21.3 15.1-32.3 22.3-22 14.5-44.9 28.1-69.3 40-11.1 5.4-22.7 10.4-34.5 14.8q-1.7 0.6-3.4 1.2c-13.1 4.7-26.8 8.6-41 11.2-14.2 2.7-29.1 4-44.4 3.4-15.2-0.6-30.8-3.4-45.7-8.6-7.4-2.6-14.6-5.8-21.5-9.6-7-3.7-13.5-8-19.6-12.6-6.2-4.6-11.9-9.6-17.1-14.9l-2-2-0.5-0.5c-0.4-0.5 0.3 0.4-1.1-1.2l-0.8-0.8-1-1.2q82.9 48.4 198.2-28.3z"/><path class="g" d="m135.4 394.1c0-1.8 0.1-3.6 0.2-5.4 0.1-1.9 0.2-3.7 0.4-5.5q0.2-2.7 0.5-5.4 0.4-2.8 0.8-5.5l0.5-2.6 0.5-2.7q0.6-2.7 1.1-5.4c3.5-14.1 9-27.8 16.6-40 3.7-6.2 8.1-12 12.7-17.4q1.8-2 3.5-3.9 0.9-1 1.9-2l1.9-1.8q1.9-1.8 3.8-3.6c1.3-1.2 2.6-2.3 4-3.4 5.3-4.5 11-8.4 16.7-12 0.1 0 1.4-0.8 1-0.6l0.5-0.2 0.8-0.5 1.7-1c1.2-0.6 2.1-1.1 3.8-2 3-1.6 6.1-3.2 8.8-4.4 22.4-10.1 44.7-15.3 66-17.4 10.7-1.1 21.2-1.5 31.4-1.1h0.9l1 0.1h0.8c0 0 1.6 0 1.1 0l0.4 0.1q1.7 0.1 3.4 0.2 3.4 0.3 6.7 0.5 1.7 0.2 3.4 0.3 1.8 0.2 3.7 0.4 3.6 0.4 7.2 0.8c4.9 0.5 9.3 1.4 13.8 2.1 2.2 0.4 4.5 0.7 6.7 1.2q3.2 0.7 6.5 1.4 3.2 0.7 6.3 1.3 3.2 0.8 6.3 1.6c4.1 1.2 8.2 2.1 12.1 3.4 3.9 1.3 7.8 2.4 11.5 3.7q5.6 2 11 4c3.6 1.3 7 2.8 10.4 4.2q2.6 1.1 5.1 2.1 2.4 1.2 4.8 2.3c3.2 1.5 6.3 2.9 9.3 4.5q4.5 2.3 8.7 4.6c2.9 1.4 5.6 3 8.2 4.6q4 2.4 7.7 4.6c4.8 3.2 9.5 6.1 13.6 9.1 4.2 3 8.1 5.8 11.6 8.5q5.2 4.3 9.6 7.8c2.8 2.5 5.4 4.8 7.6 6.9q1.7 1.5 3.2 2.9 1.5 1.4 2.7 2.6 2.5 2.5 4.1 4.2 2.2 2.2 3.4 3.4l-4.2 5.3q-1.4-0.8-4.1-2.2-2.1-1.1-5-2.8-1.5-0.8-3.2-1.7-1.8-0.9-3.7-1.9-4-2-8.8-4.5-4.9-2.2-10.7-4.9c-3.8-1.8-8.1-3.5-12.5-5.3-4.5-1.8-9.3-3.6-14.3-5.5-10.2-3.4-21.4-7.2-34-10.1-12.4-3.1-25.9-5.9-40.4-7.6-3.6-0.6-7.3-0.8-11.1-1.2q-2.8-0.2-5.6-0.5-2.8-0.2-5.7-0.3-2.9-0.2-5.8-0.4c-2-0.1-3.9 0-5.9-0.1-3.9 0-8-0.2-11.8 0q-2.9 0-5.8 0.1-1.5 0-3 0.1-1.6 0.1-3.3 0.1-3.3 0.2-6.7 0.4-1.7 0.1-3.4 0.2l-0.4 0.1c-0.8 0 0.5 0 0.2 0l-0.8 0.1h-0.5c-0.1 0-0.1 0-0.3 0l-0.7 0.1c-8.1 0.9-16.2 2.1-24.4 3.9-8.1 1.9-16.2 4.3-24.1 7.1-7.9 3-15.6 6.6-22.8 10.8-1.9 1-3.2 2-4.8 2.9-0.6 0.3-1.9 1.2-2.9 1.9l-1.6 1.1-0.9 0.6-0.4 0.2c-0.6 0.4 0.5-0.2 0.3-0.1-3 2.3-5.8 4.6-8.4 7.2l-1.9 2-1.8 2.1-0.9 1q-0.4 0.5-0.8 1.1-0.8 1.1-1.7 2.1c-2.1 3-4.1 6.1-5.7 9.4-3.5 6.6-5.8 13.9-7.2 21.6-1.4 7.7-1.7 15.9-0.9 24.1 0.4 4.1 1.1 8.2 2 12.3 0.9 4.1 2.2 8.1 3.6 12.1q2.3 5.9 5.2 11.6c0.5 0.9 1.1 1.8 1.6 2.7 0.5 0.9 1 1.9 1.6 2.7l1.7 2.7 1.8 2.6c0.3 0.4 0.7 0.9 0.9 1.2l0.8 1 0.7 1c0.3 0.3 0.4 0.5 1 1.2l2.9 3.3 0.5 0.5 0.2 0.3 1.2 1.2c3.2 3.3 6.4 6.4 9.9 9.1 6.8 5.6 14.2 10.1 22.3 13.4 8 3.3 16.8 5.6 26.3 6.7 9.5 1 19.6 0.9 30.1-0.2 10.5-1.2 21.3-3.4 32.1-6.4 7.4-2.1 14.7-4.5 22.1-7.2q-115.3 76.7-198.2 28.3l-2-2.2c-0.4-0.4-1.2-1.4-1.9-2.2l-2-2.5-2.1-2.5c-0.6-0.8-1.1-1.6-1.7-2.4-18.3-24.8-28.3-54.2-29.9-83.4-0.2-3.6-0.2-7.3-0.2-11z"/></svg>