<svg xmlns="http://www.w3.org/2000/svg" xmlns:xlink="http://www.w3.org/1999/xlink" width="150" zoomAndPan="magnify" viewBox="0 0 112.5 30.000001" height="40" preserveAspectRatio="xMidYMid meet" version="1.0"><defs><g/><clipPath id="id1"><path d="M 52 10 L 71 10 L 71 29.03125 L 52 29.03125 Z M 52 10 " clip-rule="nonzero"/></clipPath><clipPath id="id2"><path d="M 107 20 L 108 20 L 108 21 L 107 21 Z M 107 20 " clip-rule="nonzero"/></clipPath><clipPath id="id3"><path d="M 107.023438 20.804688 L 107.015625 20.816406 C 107.015625 20.816406 107.035156 20.800781 107.023438 20.804688 Z M 107.023438 20.804688 " clip-rule="nonzero"/></clipPath><clipPath id="id4"><path d="M 108 16 L 109 16 L 109 17 L 108 17 Z M 108 16 " clip-rule="nonzero"/></clipPath><clipPath id="id5"><path d="M 108.003906 16.183594 L 108.007812 16.199219 C 108.015625 16.203125 108.015625 16.210938 108.003906 16.183594 Z M 108.003906 16.183594 " clip-rule="nonzero"/></clipPath><clipPath id="id6"><path d="M 107 20 L 108 20 L 108 21 L 107 21 Z M 107 20 " clip-rule="nonzero"/></clipPath><clipPath id="id7"><path d="M 107.023438 20.804688 L 107.015625 20.816406 C 107.015625 20.816406 107.035156 20.800781 107.023438 20.804688 Z M 107.023438 20.804688 " clip-rule="nonzero"/></clipPath><clipPath id="id8"><path d="M 108 16 L 109 16 L 109 17 L 108 17 Z M 108 16 " clip-rule="nonzero"/></clipPath><clipPath id="id9"><path d="M 108.003906 16.183594 L 108.007812 16.199219 C 108.015625 16.203125 108.015625 16.210938 108.003906 16.183594 Z M 108.003906 16.183594 " clip-rule="nonzero"/></clipPath><clipPath id="id10"><path d="M 93 12 L 110 12 L 110 24 L 93 24 Z M 93 12 " clip-rule="nonzero"/></clipPath><clipPath id="id11"><path d="M 93.179688 19.589844 C 99.21875 14.914062 103.441406 13.125 106.101562 12.484375 C 106.28125 12.539062 106.457031 12.605469 106.632812 12.683594 C 107.285156 12.953125 107.898438 13.347656 108.402344 13.84375 C 108.65625 14.09375 108.886719 14.363281 109.078125 14.652344 L 109.152344 14.761719 L 109.21875 14.878906 C 109.265625 14.960938 109.3125 15.039062 109.363281 15.121094 L 109.457031 15.308594 L 109.519531 15.4375 L 109.566406 15.558594 C 109.839844 16.195312 109.96875 16.875 109.964844 17.53125 C 109.964844 18.195312 109.839844 18.832031 109.613281 19.414062 C 109.394531 19.992188 109.085938 20.523438 108.707031 20.984375 C 108.605469 21.097656 108.523438 21.210938 108.40625 21.320312 C 108.296875 21.429688 108.183594 21.550781 108.09375 21.625 L 107.945312 21.75 L 107.910156 21.78125 C 107.921875 21.773438 107.875 21.816406 107.875 21.816406 L 107.851562 21.832031 L 107.769531 21.894531 C 107.660156 21.976562 107.546875 22.0625 107.429688 22.136719 C 106.515625 22.75 105.53125 23.109375 104.582031 23.304688 C 104.105469 23.402344 103.640625 23.457031 103.183594 23.476562 C 103.066406 23.484375 102.953125 23.484375 102.84375 23.488281 C 102.785156 23.488281 102.730469 23.488281 102.675781 23.488281 C 102.617188 23.484375 102.5625 23.484375 102.5 23.484375 C 102.390625 23.476562 102.277344 23.476562 102.175781 23.46875 C 102.125 23.464844 102.070312 23.460938 102.019531 23.457031 L 101.945312 23.453125 L 101.925781 23.445312 C 101.925781 23.445312 101.894531 23.445312 101.898438 23.445312 L 101.855469 23.441406 C 101.011719 23.351562 100.238281 23.171875 99.546875 22.941406 C 98.859375 22.703125 98.25 22.417969 97.726562 22.121094 C 97.664062 22.082031 97.601562 22.046875 97.539062 22.007812 C 97.476562 21.96875 97.414062 21.929688 97.355469 21.894531 C 97.234375 21.816406 97.113281 21.742188 97.007812 21.660156 C 96.902344 21.585938 96.796875 21.507812 96.695312 21.4375 C 96.597656 21.359375 96.5 21.28125 96.40625 21.210938 C 96.316406 21.140625 96.234375 21.0625 96.15625 20.992188 C 96.074219 20.921875 95.996094 20.851562 95.925781 20.789062 C 95.78125 20.644531 95.652344 20.523438 95.542969 20.40625 C 95.433594 20.285156 95.339844 20.179688 95.257812 20.089844 C 95.175781 19.992188 95.117188 19.914062 95.066406 19.851562 C 95 19.765625 94.949219 19.703125 94.914062 19.664062 L 95.183594 19.425781 C 95.21875 19.46875 95.273438 19.527344 95.347656 19.605469 C 95.40625 19.664062 95.472656 19.742188 95.558594 19.824219 C 95.640625 19.902344 95.738281 19.992188 95.84375 20.097656 C 95.957031 20.199219 96.09375 20.308594 96.234375 20.429688 C 96.308594 20.488281 96.382812 20.546875 96.464844 20.609375 C 96.542969 20.671875 96.625 20.734375 96.722656 20.800781 C 96.8125 20.859375 96.90625 20.921875 97.003906 20.988281 C 97.105469 21.050781 97.210938 21.117188 97.316406 21.183594 C 97.421875 21.25 97.539062 21.308594 97.652344 21.371094 C 97.714844 21.402344 97.773438 21.4375 97.832031 21.46875 C 97.894531 21.5 97.957031 21.523438 98.019531 21.558594 C 98.527344 21.804688 99.117188 22.023438 99.769531 22.199219 C 100.421875 22.371094 101.144531 22.488281 101.917969 22.515625 L 101.957031 22.519531 C 101.972656 22.519531 101.957031 22.519531 101.96875 22.519531 L 102.0625 22.519531 C 102.109375 22.519531 102.160156 22.519531 102.214844 22.519531 C 102.324219 22.519531 102.414062 22.515625 102.507812 22.515625 C 102.554688 22.511719 102.605469 22.507812 102.652344 22.507812 C 102.703125 22.503906 102.75 22.496094 102.800781 22.492188 C 102.898438 22.488281 103.003906 22.484375 103.105469 22.46875 C 103.507812 22.417969 103.917969 22.347656 104.332031 22.230469 C 105.148438 22.003906 105.972656 21.636719 106.683594 21.089844 C 106.777344 21.019531 106.863281 20.945312 106.945312 20.871094 L 107.007812 20.816406 L 107.015625 20.816406 C 107.015625 20.816406 107.035156 20.800781 107.023438 20.804688 L 107.015625 20.816406 C 107.015625 20.816406 107.015625 20.8125 107.023438 20.804688 L 107.054688 20.773438 L 107.191406 20.640625 C 107.296875 20.546875 107.347656 20.472656 107.417969 20.394531 C 107.484375 20.320312 107.546875 20.226562 107.617188 20.136719 C 107.878906 19.773438 108.089844 19.363281 108.222656 18.925781 C 108.503906 18.050781 108.457031 17.074219 108.042969 16.261719 L 108.007812 16.199219 C 108.015625 16.203125 108.015625 16.210938 108.003906 16.183594 L 108.007812 16.199219 C 108.007812 16.195312 108.003906 16.183594 108.003906 16.183594 L 107.988281 16.164062 L 107.960938 16.117188 L 107.859375 15.925781 L 107.761719 15.800781 L 107.722656 15.738281 L 107.667969 15.664062 C 107.527344 15.480469 107.359375 15.308594 107.1875 15.15625 C 106.835938 14.847656 106.417969 14.609375 105.949219 14.445312 C 105.011719 14.121094 103.902344 14.078125 102.800781 14.257812 C 102.25 14.34375 101.699219 14.484375 101.164062 14.667969 C 101.035156 14.722656 100.898438 14.769531 100.773438 14.820312 L 100.671875 14.863281 L 100.582031 14.898438 L 100.363281 15 L 100.144531 15.09375 C 100.070312 15.125 100.011719 15.164062 99.945312 15.195312 C 99.808594 15.257812 99.675781 15.320312 99.546875 15.390625 C 98.457031 15.9375 97.386719 16.582031 96.332031 17.304688 C 95.804688 17.65625 95.28125 18.03125 94.753906 18.414062 C 94.230469 18.796875 93.707031 19.1875 93.179688 19.589844 Z M 93.179688 19.589844 " clip-rule="nonzero"/></clipPath><clipPath id="id12"><path d="M 74 12 L 107 12 L 107 26 L 74 26 Z M 74 12 " clip-rule="nonzero"/></clipPath><clipPath id="id13"><path d="M 84.429688 21.484375 C 84.617188 21.414062 84.800781 21.339844 84.988281 21.265625 C 86.128906 20.804688 87.25 20.210938 88.355469 19.550781 C 88.90625 19.21875 89.453125 18.871094 89.992188 18.515625 C 90.265625 18.335938 90.535156 18.152344 90.804688 17.972656 C 91.078125 17.785156 91.351562 17.59375 91.625 17.40625 C 92.722656 16.652344 93.839844 15.898438 94.992188 15.199219 C 96.144531 14.496094 97.332031 13.84375 98.570312 13.292969 C 98.726562 13.226562 98.890625 13.164062 99.054688 13.09375 C 99.132812 13.0625 99.214844 13.027344 99.289062 12.996094 L 99.507812 12.910156 L 99.734375 12.828125 L 99.867188 12.777344 L 99.992188 12.730469 C 100.160156 12.671875 100.328125 12.621094 100.496094 12.570312 C 101.171875 12.375 101.851562 12.238281 102.539062 12.167969 C 102.878906 12.132812 103.226562 12.117188 103.570312 12.117188 C 103.742188 12.109375 103.917969 12.121094 104.089844 12.125 C 104.261719 12.140625 104.433594 12.148438 104.609375 12.167969 C 104.78125 12.191406 104.949219 12.214844 105.121094 12.242188 C 105.292969 12.277344 105.460938 12.3125 105.636719 12.351562 C 105.792969 12.390625 105.949219 12.433594 106.101562 12.484375 C 103.441406 13.125 99.21875 14.914062 93.179688 19.589844 C 92.914062 19.785156 92.648438 19.984375 92.382812 20.183594 C 92.105469 20.386719 91.832031 20.589844 91.558594 20.789062 C 91.003906 21.1875 90.441406 21.582031 89.867188 21.960938 C 88.710938 22.726562 87.511719 23.441406 86.234375 24.066406 C 85.652344 24.351562 85.042969 24.613281 84.425781 24.847656 C 84.367188 24.867188 84.308594 24.886719 84.246094 24.910156 C 83.5625 25.15625 82.84375 25.363281 82.097656 25.5 C 81.355469 25.640625 80.574219 25.707031 79.773438 25.675781 C 78.976562 25.644531 78.15625 25.5 77.375 25.226562 C 76.988281 25.089844 76.613281 24.917969 76.25 24.71875 C 75.882812 24.523438 75.542969 24.296875 75.222656 24.054688 C 74.898438 23.816406 74.597656 23.550781 74.328125 23.273438 L 74.195312 23.140625 C 74.175781 23.113281 74.210938 23.160156 74.136719 23.078125 L 74.097656 23.035156 L 74.042969 22.972656 C 76.941406 24.671875 80.402344 24.175781 84.429688 21.484375 Z M 84.429688 21.484375 " clip-rule="nonzero"/></clipPath><clipPath id="id14"><path d="M 71.566406 9.078125 L 93 9.078125 L 93 24 L 71.566406 24 Z M 71.566406 9.078125 " clip-rule="nonzero"/></clipPath><clipPath id="id15"><path d="M 71.957031 17.382812 C 71.957031 17.289062 71.960938 17.195312 71.96875 17.097656 C 71.972656 17 71.976562 16.90625 71.988281 16.808594 C 71.996094 16.714844 72.003906 16.621094 72.015625 16.527344 C 72.027344 16.425781 72.042969 16.332031 72.058594 16.238281 L 72.082031 16.097656 L 72.109375 15.957031 C 72.128906 15.863281 72.148438 15.769531 72.167969 15.671875 C 72.351562 14.929688 72.640625 14.210938 73.039062 13.566406 C 73.230469 13.242188 73.460938 12.9375 73.703125 12.652344 C 73.765625 12.582031 73.828125 12.515625 73.886719 12.449219 C 73.917969 12.414062 73.949219 12.378906 73.984375 12.34375 L 74.085938 12.246094 C 74.152344 12.183594 74.21875 12.121094 74.285156 12.058594 C 74.351562 11.996094 74.421875 11.9375 74.492188 11.878906 C 74.773438 11.640625 75.070312 11.4375 75.371094 11.246094 C 75.375 11.246094 75.441406 11.207031 75.421875 11.214844 L 75.449219 11.207031 L 75.488281 11.179688 L 75.578125 11.125 C 75.640625 11.09375 75.6875 11.070312 75.777344 11.019531 C 75.933594 10.9375 76.097656 10.851562 76.238281 10.789062 C 77.414062 10.257812 78.582031 9.984375 79.699219 9.875 C 80.257812 9.816406 80.808594 9.796875 81.34375 9.816406 L 81.390625 9.816406 L 81.445312 9.820312 L 81.484375 9.820312 C 81.484375 9.820312 81.570312 9.820312 81.542969 9.820312 L 81.5625 9.828125 C 81.625 9.832031 81.683594 9.832031 81.742188 9.835938 C 81.859375 9.847656 81.976562 9.855469 82.09375 9.863281 C 82.152344 9.871094 82.210938 9.875 82.273438 9.878906 C 82.335938 9.886719 82.398438 9.894531 82.464844 9.898438 C 82.589844 9.914062 82.71875 9.929688 82.84375 9.941406 C 83.101562 9.96875 83.332031 10.015625 83.566406 10.054688 C 83.679688 10.074219 83.800781 10.089844 83.917969 10.117188 C 84.027344 10.140625 84.144531 10.164062 84.257812 10.191406 C 84.371094 10.214844 84.480469 10.238281 84.589844 10.257812 C 84.699219 10.285156 84.808594 10.3125 84.917969 10.34375 C 85.132812 10.40625 85.347656 10.453125 85.550781 10.519531 C 85.757812 10.589844 85.960938 10.648438 86.15625 10.714844 C 86.351562 10.785156 86.542969 10.855469 86.730469 10.925781 C 86.921875 10.996094 87.097656 11.074219 87.277344 11.148438 C 87.367188 11.1875 87.457031 11.222656 87.542969 11.257812 C 87.628906 11.300781 87.710938 11.339844 87.796875 11.378906 C 87.964844 11.457031 88.125 11.53125 88.28125 11.617188 C 88.441406 11.695312 88.59375 11.777344 88.738281 11.859375 C 88.890625 11.933594 89.03125 12.015625 89.167969 12.101562 C 89.308594 12.183594 89.441406 12.265625 89.570312 12.34375 C 89.824219 12.511719 90.070312 12.664062 90.285156 12.820312 C 90.503906 12.980469 90.710938 13.125 90.894531 13.269531 C 91.074219 13.417969 91.242188 13.554688 91.394531 13.679688 C 91.542969 13.808594 91.679688 13.929688 91.792969 14.042969 C 91.855469 14.09375 91.910156 14.144531 91.960938 14.195312 C 92.015625 14.242188 92.0625 14.289062 92.105469 14.332031 C 92.191406 14.417969 92.261719 14.492188 92.320312 14.550781 C 92.394531 14.628906 92.453125 14.6875 92.496094 14.730469 L 92.277344 15.011719 C 92.226562 14.980469 92.15625 14.945312 92.0625 14.894531 C 91.988281 14.855469 91.902344 14.808594 91.800781 14.746094 C 91.746094 14.71875 91.691406 14.6875 91.632812 14.65625 C 91.570312 14.625 91.503906 14.59375 91.4375 14.558594 C 91.296875 14.488281 91.144531 14.410156 90.976562 14.320312 C 90.804688 14.242188 90.617188 14.15625 90.414062 14.0625 C 90.21875 13.96875 89.992188 13.878906 89.761719 13.785156 C 89.523438 13.6875 89.273438 13.59375 89.011719 13.496094 C 88.476562 13.316406 87.890625 13.117188 87.230469 12.964844 C 86.578125 12.800781 85.871094 12.652344 85.113281 12.5625 C 84.921875 12.53125 84.730469 12.519531 84.53125 12.5 C 84.433594 12.492188 84.335938 12.484375 84.238281 12.472656 C 84.140625 12.464844 84.039062 12.460938 83.9375 12.457031 C 83.835938 12.449219 83.734375 12.445312 83.632812 12.4375 C 83.53125 12.429688 83.429688 12.4375 83.324219 12.429688 C 83.121094 12.429688 82.90625 12.421875 82.707031 12.429688 C 82.605469 12.429688 82.503906 12.433594 82.402344 12.4375 C 82.351562 12.4375 82.296875 12.4375 82.246094 12.441406 C 82.191406 12.445312 82.132812 12.449219 82.074219 12.449219 C 81.957031 12.453125 81.839844 12.460938 81.722656 12.46875 C 81.660156 12.472656 81.601562 12.476562 81.542969 12.480469 L 81.523438 12.484375 C 81.480469 12.484375 81.546875 12.484375 81.53125 12.484375 L 81.492188 12.488281 L 81.464844 12.488281 C 81.460938 12.488281 81.460938 12.488281 81.449219 12.488281 L 81.410156 12.496094 C 80.988281 12.542969 80.5625 12.605469 80.132812 12.699219 C 79.707031 12.800781 79.285156 12.925781 78.871094 13.074219 C 78.457031 13.230469 78.050781 13.421875 77.675781 13.640625 C 77.574219 13.695312 77.507812 13.746094 77.421875 13.792969 C 77.390625 13.808594 77.324219 13.859375 77.273438 13.894531 L 77.1875 13.953125 L 77.140625 13.984375 L 77.121094 13.996094 C 77.089844 14.015625 77.144531 13.984375 77.136719 13.988281 C 76.976562 14.109375 76.832031 14.230469 76.695312 14.367188 L 76.597656 14.472656 L 76.5 14.582031 L 76.453125 14.636719 C 76.441406 14.652344 76.425781 14.671875 76.414062 14.695312 C 76.382812 14.734375 76.355469 14.769531 76.324219 14.804688 C 76.214844 14.960938 76.109375 15.125 76.023438 15.300781 C 75.839844 15.648438 75.71875 16.03125 75.648438 16.4375 C 75.574219 16.839844 75.558594 17.273438 75.601562 17.703125 C 75.621094 17.921875 75.65625 18.136719 75.703125 18.351562 C 75.75 18.566406 75.820312 18.777344 75.894531 18.988281 C 75.972656 19.195312 76.066406 19.398438 76.164062 19.597656 C 76.191406 19.648438 76.222656 19.695312 76.25 19.742188 C 76.277344 19.789062 76.300781 19.839844 76.332031 19.882812 L 76.421875 20.027344 L 76.515625 20.164062 C 76.53125 20.183594 76.554688 20.210938 76.5625 20.226562 L 76.605469 20.277344 L 76.644531 20.332031 C 76.660156 20.347656 76.664062 20.355469 76.695312 20.394531 L 76.847656 20.566406 L 76.875 20.59375 L 76.882812 20.609375 L 76.945312 20.671875 C 77.113281 20.847656 77.28125 21.007812 77.464844 21.152344 C 77.820312 21.445312 78.210938 21.683594 78.632812 21.855469 C 79.054688 22.03125 79.515625 22.152344 80.011719 22.210938 C 80.511719 22.261719 81.039062 22.257812 81.589844 22.199219 C 82.140625 22.136719 82.707031 22.019531 83.273438 21.863281 C 83.660156 21.75 84.042969 21.625 84.429688 21.484375 C 80.402344 24.175781 76.941406 24.671875 74.042969 22.972656 L 73.9375 22.855469 C 73.917969 22.835938 73.875 22.78125 73.839844 22.742188 L 73.734375 22.609375 L 73.625 22.476562 C 73.59375 22.4375 73.566406 22.394531 73.535156 22.351562 C 72.574219 21.046875 72.050781 19.5 71.96875 17.960938 C 71.957031 17.773438 71.957031 17.578125 71.957031 17.382812 Z M 71.957031 17.382812 " clip-rule="nonzero"/></clipPath></defs><g fill="#ffffff" fill-opacity="1"><g transform="translate(1.572579, 26.145242)"><g><path d="M 13.03125 -12.390625 L 5.484375 -12.390625 L 5.484375 -8.8125 L 12.4375 -8.8125 L 12.4375 -5.703125 L 5.484375 -5.703125 L 5.484375 0 L 1.546875 0 L 1.546875 -15.484375 L 13.03125 -15.484375 Z M 13.03125 -12.390625 "/></g></g></g><g fill="#ffffff" fill-opacity="1"><g transform="translate(14.929348, 26.145242)"><g><path d="M 10.890625 0 L 8.578125 -4.359375 L 5.484375 -4.359375 L 5.484375 0 L 1.546875 0 L 1.546875 -15.484375 L 8.46875 -15.484375 C 10.519531 -15.484375 12.101562 -15.015625 13.21875 -14.078125 C 14.34375 -13.140625 14.90625 -11.8125 14.90625 -10.09375 C 14.90625 -7.695312 13.972656 -6.035156 12.109375 -5.109375 L 15.359375 0 Z M 5.484375 -7.453125 L 8.46875 -7.453125 C 9.320312 -7.453125 9.984375 -7.664062 10.453125 -8.09375 C 10.929688 -8.519531 11.171875 -9.140625 11.171875 -9.953125 C 11.171875 -10.753906 10.929688 -11.359375 10.453125 -11.765625 C 9.984375 -12.179688 9.320312 -12.390625 8.46875 -12.390625 L 5.484375 -12.390625 Z M 5.484375 -7.453125 "/></g></g></g><g fill="#ffffff" fill-opacity="1"><g transform="translate(30.939772, 26.145242)"><g><path d="M 5.484375 0 L 1.546875 0 L 1.546875 -15.484375 L 5.484375 -15.484375 Z M 5.484375 0 "/></g></g></g><g fill="#ffffff" fill-opacity="1"><g transform="translate(37.971978, 26.145242)"><g><path d="M 7.5 -15.671875 C 9.8125 -15.671875 11.847656 -15.09375 13.609375 -13.9375 L 12.125 -10.859375 C 11.3125 -11.335938 10.441406 -11.726562 9.515625 -12.03125 C 8.585938 -12.332031 7.804688 -12.484375 7.171875 -12.484375 C 6.035156 -12.484375 5.46875 -12.101562 5.46875 -11.34375 C 5.46875 -10.863281 5.742188 -10.472656 6.296875 -10.171875 C 6.859375 -9.878906 7.539062 -9.625 8.34375 -9.40625 C 9.15625 -9.195312 9.960938 -8.941406 10.765625 -8.640625 C 11.566406 -8.335938 12.25 -7.847656 12.8125 -7.171875 C 13.375 -6.492188 13.65625 -5.640625 13.65625 -4.609375 C 13.65625 -3.117188 13.070312 -1.957031 11.90625 -1.125 C 10.738281 -0.289062 9.253906 0.125 7.453125 0.125 C 6.171875 0.125 4.898438 -0.09375 3.640625 -0.53125 C 2.390625 -0.96875 1.300781 -1.570312 0.375 -2.34375 L 1.90625 -5.375 C 2.6875 -4.695312 3.609375 -4.140625 4.671875 -3.703125 C 5.734375 -3.265625 6.675781 -3.046875 7.5 -3.046875 C 8.132812 -3.046875 8.628906 -3.160156 8.984375 -3.390625 C 9.335938 -3.617188 9.515625 -3.957031 9.515625 -4.40625 C 9.515625 -4.832031 9.3125 -5.1875 8.90625 -5.46875 C 8.5 -5.757812 7.992188 -5.972656 7.390625 -6.109375 C 6.785156 -6.253906 6.128906 -6.441406 5.421875 -6.671875 C 4.710938 -6.910156 4.054688 -7.171875 3.453125 -7.453125 C 2.847656 -7.734375 2.34375 -8.179688 1.9375 -8.796875 C 1.53125 -9.410156 1.328125 -10.144531 1.328125 -11 C 1.328125 -12.414062 1.890625 -13.546875 3.015625 -14.390625 C 4.148438 -15.242188 5.644531 -15.671875 7.5 -15.671875 Z M 7.5 -15.671875 "/></g></g></g><g clip-path="url(#id1)"><g fill="#ffffff" fill-opacity="1"><g transform="translate(52.213294, 26.145242)"><g><path d="M 16.65625 -0.484375 L 18.046875 1.953125 C 17.460938 2.484375 16.765625 2.898438 15.953125 3.203125 C 15.140625 3.503906 14.34375 3.65625 13.5625 3.65625 C 12.5 3.65625 11.53125 3.347656 10.65625 2.734375 C 9.789062 2.117188 9.097656 1.265625 8.578125 0.171875 C 6.265625 0.0976562 4.34375 -0.6875 2.8125 -2.1875 C 1.289062 -3.695312 0.53125 -5.554688 0.53125 -7.765625 C 0.53125 -10.023438 1.328125 -11.898438 2.921875 -13.390625 C 4.515625 -14.878906 6.503906 -15.625 8.890625 -15.625 C 11.296875 -15.625 13.296875 -14.875 14.890625 -13.375 C 16.484375 -11.875 17.28125 -10.003906 17.28125 -7.765625 C 17.28125 -6.066406 16.8125 -4.550781 15.875 -3.21875 C 14.9375 -1.894531 13.6875 -0.945312 12.125 -0.375 C 12.6875 0.332031 13.3125 0.6875 14 0.6875 C 14.757812 0.6875 15.644531 0.296875 16.65625 -0.484375 Z M 5.84375 -11 C 4.988281 -10.125 4.5625 -9.035156 4.5625 -7.734375 C 4.5625 -6.441406 4.988281 -5.347656 5.84375 -4.453125 C 6.707031 -3.566406 7.738281 -3.125 8.9375 -3.125 C 10.132812 -3.125 11.148438 -3.566406 11.984375 -4.453125 C 12.816406 -5.347656 13.234375 -6.441406 13.234375 -7.734375 C 13.234375 -9.035156 12.816406 -10.125 11.984375 -11 C 11.148438 -11.882812 10.132812 -12.328125 8.9375 -12.328125 C 7.726562 -12.328125 6.695312 -11.882812 5.84375 -11 Z M 5.84375 -11 "/></g></g></g></g><g fill="#ffffff" fill-opacity="1"><g transform="translate(70.12407, 26.145242)"><g/></g></g><g fill="#ffffff" fill-opacity="1"><g transform="translate(75.25449, 26.145242)"><g/></g></g><g fill="#ffffff" fill-opacity="1"><g transform="translate(80.384911, 26.145242)"><g/></g></g><g fill="#ffffff" fill-opacity="1"><g transform="translate(85.515332, 26.145242)"><g/></g></g><g fill="#ffffff" fill-opacity="1"><g transform="translate(90.645752, 26.145242)"><g/></g></g><g fill="#ffffff" fill-opacity="1"><g transform="translate(95.776173, 26.145242)"><g/></g></g><g fill="#ffffff" fill-opacity="1"><g transform="translate(100.906594, 26.145242)"><g/></g></g><g fill="#ffffff" fill-opacity="1"><g transform="translate(106.037014, 26.145242)"><g/></g></g><g clip-path="url(#id2)"><g clip-path="url(#id3)"><path fill="#ffffff" d="M 107.035156 20.816406 L 107.035156 20.800781 L 107.015625 20.800781 L 107.015625 20.816406 Z M 107.035156 20.816406 " fill-opacity="1" fill-rule="nonzero"/></g></g><g clip-path="url(#id4)"><g clip-path="url(#id5)"><path fill="#ffffff" d="M 108.015625 16.210938 L 108.015625 16.183594 L 108.003906 16.183594 L 108.003906 16.210938 Z M 108.015625 16.210938 " fill-opacity="1" fill-rule="nonzero"/></g></g><g clip-path="url(#id6)"><g clip-path="url(#id7)"><path fill="#ffffff" d="M 107.035156 20.816406 L 107.035156 20.800781 L 107.015625 20.800781 L 107.015625 20.816406 Z M 107.035156 20.816406 " fill-opacity="1" fill-rule="nonzero"/></g></g><g clip-path="url(#id8)"><g clip-path="url(#id9)"><path fill="#ffffff" d="M 108.015625 16.210938 L 108.015625 16.183594 L 108.003906 16.183594 L 108.003906 16.210938 Z M 108.015625 16.210938 " fill-opacity="1" fill-rule="nonzero"/></g></g><g clip-path="url(#id10)"><g clip-path="url(#id11)"><path fill="#ffffff" d="M 109.96875 23.488281 L 109.96875 12.484375 L 93.179688 12.484375 L 93.179688 23.488281 Z M 109.96875 23.488281 " fill-opacity="1" fill-rule="nonzero"/></g></g><g clip-path="url(#id12)"><g clip-path="url(#id13)"><path fill="#ffffff" d="M 106.101562 25.707031 L 106.101562 12.109375 L 74.042969 12.109375 L 74.042969 25.707031 Z M 106.101562 25.707031 " fill-opacity="1" fill-rule="nonzero"/></g></g><g clip-path="url(#id14)"><g clip-path="url(#id15)"><path fill="#ffffff" d="M 92.496094 24.671875 L 92.496094 9.796875 L 71.957031 9.796875 L 71.957031 24.671875 Z M 92.496094 24.671875 " fill-opacity="1" fill-rule="nonzero"/></g></g></svg>