<svg xmlns="http://www.w3.org/2000/svg" xmlns:xlink="http://www.w3.org/1999/xlink" width="150" zoomAndPan="magnify" viewBox="0 0 112.5 30.000001" height="40" preserveAspectRatio="xMidYMid meet" version="1.0"><defs><g/><clipPath id="id1"><path d="M 107 18 L 108 18 L 108 19 L 107 19 Z M 107 18 " clip-rule="nonzero"/></clipPath><clipPath id="id2"><path d="M 107.023438 18.441406 L 107.015625 18.453125 C 107.015625 18.453125 107.035156 18.4375 107.023438 18.441406 Z M 107.023438 18.441406 " clip-rule="nonzero"/></clipPath><clipPath id="id3"><path d="M 108 13 L 109 13 L 109 14 L 108 14 Z M 108 13 " clip-rule="nonzero"/></clipPath><clipPath id="id4"><path d="M 108.003906 13.820312 L 108.007812 13.835938 C 108.015625 13.84375 108.015625 13.847656 108.003906 13.820312 Z M 108.003906 13.820312 " clip-rule="nonzero"/></clipPath><clipPath id="id5"><path d="M 107 18 L 108 18 L 108 19 L 107 19 Z M 107 18 " clip-rule="nonzero"/></clipPath><clipPath id="id6"><path d="M 107.023438 18.441406 L 107.015625 18.453125 C 107.015625 18.453125 107.035156 18.4375 107.023438 18.441406 Z M 107.023438 18.441406 " clip-rule="nonzero"/></clipPath><clipPath id="id7"><path d="M 108 13 L 109 13 L 109 14 L 108 14 Z M 108 13 " clip-rule="nonzero"/></clipPath><clipPath id="id8"><path d="M 108.003906 13.820312 L 108.007812 13.835938 C 108.015625 13.84375 108.015625 13.847656 108.003906 13.820312 Z M 108.003906 13.820312 " clip-rule="nonzero"/></clipPath><clipPath id="id9"><path d="M 93 10 L 110 10 L 110 22 L 93 22 Z M 93 10 " clip-rule="nonzero"/></clipPath><clipPath id="id10"><path d="M 93.179688 17.226562 C 99.21875 12.554688 103.441406 10.765625 106.101562 10.121094 C 106.28125 10.179688 106.457031 10.246094 106.632812 10.324219 C 107.285156 10.589844 107.898438 10.984375 108.402344 11.480469 C 108.65625 11.734375 108.886719 12 109.078125 12.289062 L 109.152344 12.402344 L 109.21875 12.515625 C 109.265625 12.597656 109.3125 12.679688 109.363281 12.757812 L 109.457031 12.949219 L 109.519531 13.074219 L 109.566406 13.195312 C 109.839844 13.832031 109.96875 14.511719 109.964844 15.167969 C 109.964844 15.832031 109.839844 16.46875 109.613281 17.054688 C 109.394531 17.632812 109.085938 18.164062 108.707031 18.621094 C 108.605469 18.738281 108.523438 18.847656 108.40625 18.957031 C 108.296875 19.070312 108.183594 19.191406 108.09375 19.261719 L 107.945312 19.390625 L 107.910156 19.421875 C 107.921875 19.410156 107.875 19.453125 107.875 19.453125 L 107.851562 19.46875 L 107.769531 19.53125 C 107.660156 19.617188 107.546875 19.699219 107.429688 19.773438 C 106.515625 20.390625 105.53125 20.746094 104.582031 20.941406 C 104.105469 21.042969 103.640625 21.09375 103.183594 21.117188 C 103.066406 21.121094 102.953125 21.121094 102.84375 21.125 C 102.785156 21.125 102.730469 21.125 102.675781 21.125 C 102.617188 21.121094 102.5625 21.121094 102.5 21.121094 C 102.390625 21.117188 102.277344 21.117188 102.175781 21.105469 C 102.125 21.101562 102.070312 21.097656 102.019531 21.09375 L 101.945312 21.089844 L 101.925781 21.085938 C 101.925781 21.085938 101.894531 21.085938 101.898438 21.085938 L 101.855469 21.078125 C 101.011719 20.988281 100.238281 20.8125 99.546875 20.578125 C 98.859375 20.34375 98.25 20.058594 97.726562 19.757812 C 97.664062 19.722656 97.601562 19.683594 97.539062 19.648438 C 97.476562 19.605469 97.414062 19.566406 97.355469 19.53125 C 97.234375 19.453125 97.113281 19.378906 97.007812 19.300781 C 96.902344 19.222656 96.796875 19.148438 96.695312 19.074219 C 96.597656 18.996094 96.5 18.921875 96.40625 18.847656 C 96.316406 18.777344 96.234375 18.699219 96.15625 18.632812 C 96.074219 18.558594 95.996094 18.488281 95.925781 18.425781 C 95.78125 18.285156 95.652344 18.164062 95.542969 18.042969 C 95.433594 17.921875 95.339844 17.816406 95.257812 17.726562 C 95.175781 17.632812 95.117188 17.554688 95.066406 17.488281 C 95 17.40625 94.949219 17.34375 94.914062 17.300781 L 95.183594 17.0625 C 95.21875 17.105469 95.273438 17.164062 95.347656 17.242188 C 95.40625 17.300781 95.472656 17.378906 95.558594 17.464844 C 95.640625 17.539062 95.738281 17.632812 95.84375 17.738281 C 95.957031 17.835938 96.09375 17.949219 96.234375 18.070312 C 96.308594 18.125 96.382812 18.183594 96.464844 18.246094 C 96.542969 18.3125 96.625 18.375 96.722656 18.4375 C 96.8125 18.496094 96.90625 18.558594 97.003906 18.625 C 97.105469 18.691406 97.210938 18.753906 97.316406 18.820312 C 97.421875 18.890625 97.539062 18.949219 97.652344 19.011719 C 97.714844 19.042969 97.773438 19.074219 97.832031 19.105469 C 97.894531 19.136719 97.957031 19.164062 98.019531 19.195312 C 98.527344 19.441406 99.117188 19.664062 99.769531 19.835938 C 100.421875 20.011719 101.144531 20.125 101.917969 20.152344 L 101.957031 20.15625 C 101.972656 20.15625 101.957031 20.15625 101.96875 20.15625 L 102.0625 20.15625 C 102.109375 20.15625 102.160156 20.15625 102.214844 20.15625 C 102.324219 20.15625 102.414062 20.152344 102.507812 20.152344 C 102.554688 20.148438 102.605469 20.148438 102.652344 20.148438 C 102.703125 20.140625 102.75 20.136719 102.800781 20.132812 C 102.898438 20.125 103.003906 20.121094 103.105469 20.105469 C 103.507812 20.058594 103.917969 19.984375 104.332031 19.867188 C 105.148438 19.640625 105.972656 19.273438 106.683594 18.726562 C 106.777344 18.660156 106.863281 18.585938 106.945312 18.511719 L 107.007812 18.453125 L 107.015625 18.453125 C 107.015625 18.453125 107.035156 18.4375 107.023438 18.441406 L 107.015625 18.453125 C 107.015625 18.453125 107.015625 18.449219 107.023438 18.441406 L 107.054688 18.410156 L 107.191406 18.28125 C 107.296875 18.183594 107.347656 18.109375 107.417969 18.03125 C 107.484375 17.957031 107.546875 17.863281 107.617188 17.773438 C 107.878906 17.410156 108.089844 17 108.222656 16.5625 C 108.503906 15.691406 108.457031 14.710938 108.042969 13.902344 L 108.007812 13.835938 C 108.015625 13.84375 108.015625 13.847656 108.003906 13.820312 L 108.007812 13.835938 C 108.007812 13.832031 108.003906 13.820312 108.003906 13.820312 L 107.988281 13.800781 L 107.960938 13.753906 L 107.859375 13.5625 L 107.761719 13.4375 L 107.722656 13.375 L 107.667969 13.300781 C 107.527344 13.117188 107.359375 12.949219 107.1875 12.796875 C 106.835938 12.484375 106.417969 12.25 105.949219 12.085938 C 105.011719 11.757812 103.902344 11.71875 102.800781 11.894531 C 102.25 11.980469 101.699219 12.121094 101.164062 12.304688 C 101.035156 12.359375 100.898438 12.40625 100.773438 12.457031 L 100.671875 12.5 L 100.582031 12.539062 L 100.144531 12.734375 C 100.070312 12.765625 100.011719 12.800781 99.945312 12.832031 C 99.808594 12.894531 99.675781 12.957031 99.546875 13.027344 C 98.457031 13.574219 97.386719 14.222656 96.332031 14.941406 C 95.804688 15.296875 95.28125 15.667969 94.753906 16.054688 C 94.230469 16.4375 93.707031 16.828125 93.179688 17.226562 Z M 93.179688 17.226562 " clip-rule="nonzero"/></clipPath><clipPath id="id11"><path d="M 74 9 L 107 9 L 107 23.699219 L 74 23.699219 Z M 74 9 " clip-rule="nonzero"/></clipPath><clipPath id="id12"><path d="M 84.429688 19.121094 C 84.617188 19.050781 84.800781 18.980469 84.988281 18.90625 C 86.128906 18.441406 87.25 17.847656 88.355469 17.191406 C 88.90625 16.859375 89.453125 16.511719 89.992188 16.152344 C 90.265625 15.972656 90.535156 15.789062 90.804688 15.609375 C 91.078125 15.421875 91.351562 15.230469 91.625 15.042969 C 92.722656 14.289062 93.839844 13.539062 94.992188 12.835938 C 96.144531 12.132812 97.332031 11.480469 98.570312 10.933594 C 98.726562 10.863281 98.890625 10.800781 99.054688 10.734375 C 99.132812 10.703125 99.214844 10.664062 99.289062 10.632812 L 99.507812 10.546875 L 99.734375 10.464844 L 99.867188 10.417969 L 99.992188 10.371094 C 100.160156 10.3125 100.328125 10.257812 100.496094 10.207031 C 101.171875 10.011719 101.851562 9.875 102.539062 9.804688 C 102.878906 9.773438 103.226562 9.753906 103.570312 9.753906 C 103.742188 9.75 103.917969 9.757812 104.089844 9.765625 C 104.261719 9.78125 104.433594 9.785156 104.609375 9.804688 C 104.78125 9.828125 104.949219 9.855469 105.121094 9.878906 C 105.292969 9.917969 105.460938 9.949219 105.636719 9.992188 C 105.792969 10.03125 105.949219 10.074219 106.101562 10.121094 C 103.441406 10.765625 99.21875 12.554688 93.179688 17.226562 C 92.914062 17.421875 92.648438 17.621094 92.382812 17.820312 C 92.105469 18.027344 91.832031 18.226562 91.558594 18.425781 C 91.003906 18.828125 90.441406 19.222656 89.867188 19.601562 C 88.710938 20.363281 87.511719 21.078125 86.234375 21.707031 C 85.652344 21.988281 85.042969 22.253906 84.425781 22.484375 C 84.367188 22.503906 84.308594 22.527344 84.246094 22.546875 C 83.5625 22.792969 82.84375 23 82.097656 23.136719 C 81.355469 23.277344 80.574219 23.347656 79.773438 23.316406 C 78.976562 23.285156 78.15625 23.136719 77.375 22.863281 C 76.988281 22.726562 76.613281 22.558594 76.25 22.359375 C 75.882812 22.164062 75.542969 21.9375 75.222656 21.695312 C 74.898438 21.453125 74.597656 21.191406 74.328125 20.910156 L 74.195312 20.777344 C 74.175781 20.753906 74.210938 20.800781 74.136719 20.714844 L 74.097656 20.671875 L 74.042969 20.609375 C 76.941406 22.308594 80.402344 21.8125 84.429688 19.121094 Z M 84.429688 19.121094 " clip-rule="nonzero"/></clipPath><clipPath id="id13"><path d="M 71.566406 7 L 93 7 L 93 22 L 71.566406 22 Z M 71.566406 7 " clip-rule="nonzero"/></clipPath><clipPath id="id14"><path d="M 71.957031 15.023438 C 71.957031 14.925781 71.960938 14.832031 71.96875 14.738281 C 71.972656 14.636719 71.976562 14.542969 71.988281 14.449219 C 71.996094 14.351562 72.003906 14.257812 72.015625 14.164062 C 72.027344 14.066406 72.042969 13.96875 72.058594 13.875 L 72.082031 13.738281 L 72.109375 13.59375 C 72.128906 13.5 72.148438 13.40625 72.167969 13.3125 C 72.351562 12.570312 72.640625 11.847656 73.039062 11.207031 C 73.230469 10.878906 73.460938 10.574219 73.703125 10.289062 C 73.765625 10.21875 73.828125 10.152344 73.886719 10.085938 C 73.917969 10.050781 73.949219 10.015625 73.984375 9.980469 L 74.085938 9.886719 C 74.152344 9.824219 74.21875 9.757812 74.285156 9.695312 C 74.351562 9.632812 74.421875 9.574219 74.492188 9.515625 C 74.773438 9.28125 75.070312 9.074219 75.371094 8.886719 C 75.375 8.886719 75.441406 8.84375 75.421875 8.855469 L 75.449219 8.84375 L 75.488281 8.816406 L 75.578125 8.765625 C 75.640625 8.734375 75.6875 8.707031 75.777344 8.660156 C 75.933594 8.574219 76.097656 8.492188 76.238281 8.429688 C 77.414062 7.894531 78.582031 7.621094 79.699219 7.511719 C 80.257812 7.453125 80.808594 7.433594 81.34375 7.453125 L 81.390625 7.453125 L 81.445312 7.460938 L 81.484375 7.460938 C 81.484375 7.460938 81.570312 7.460938 81.542969 7.460938 L 81.5625 7.464844 C 81.625 7.46875 81.683594 7.472656 81.742188 7.476562 C 81.859375 7.484375 81.976562 7.496094 82.09375 7.5 C 82.152344 7.507812 82.210938 7.515625 82.273438 7.515625 C 82.335938 7.523438 82.398438 7.53125 82.464844 7.539062 C 82.589844 7.550781 82.71875 7.566406 82.84375 7.582031 C 83.101562 7.605469 83.332031 7.652344 83.566406 7.691406 C 83.679688 7.710938 83.800781 7.726562 83.917969 7.753906 C 84.027344 7.777344 84.144531 7.804688 84.257812 7.828125 C 84.371094 7.851562 84.480469 7.875 84.589844 7.894531 C 84.699219 7.925781 84.808594 7.953125 84.917969 7.980469 C 85.132812 8.042969 85.347656 8.089844 85.550781 8.160156 C 85.757812 8.226562 85.960938 8.285156 86.15625 8.355469 C 86.351562 8.425781 86.542969 8.496094 86.730469 8.566406 C 86.921875 8.632812 87.097656 8.710938 87.277344 8.785156 C 87.367188 8.824219 87.457031 8.859375 87.542969 8.894531 C 87.628906 8.9375 87.710938 8.980469 87.796875 9.015625 C 87.964844 9.097656 88.125 9.167969 88.28125 9.253906 C 88.441406 9.335938 88.59375 9.414062 88.738281 9.496094 C 88.890625 9.570312 89.03125 9.652344 89.167969 9.738281 C 89.308594 9.824219 89.441406 9.902344 89.570312 9.980469 C 89.824219 10.148438 90.070312 10.300781 90.285156 10.460938 C 90.503906 10.617188 90.710938 10.765625 90.894531 10.90625 C 91.074219 11.058594 91.242188 11.195312 91.394531 11.316406 C 91.542969 11.449219 91.679688 11.570312 91.792969 11.679688 C 91.855469 11.734375 91.910156 11.785156 91.960938 11.832031 C 92.015625 11.882812 92.0625 11.925781 92.105469 11.96875 C 92.191406 12.058594 92.261719 12.132812 92.320312 12.191406 C 92.394531 12.269531 92.453125 12.328125 92.496094 12.371094 L 92.277344 12.648438 C 92.226562 12.621094 92.15625 12.582031 92.0625 12.53125 C 91.988281 12.492188 91.902344 12.445312 91.800781 12.386719 C 91.746094 12.355469 91.691406 12.328125 91.632812 12.296875 C 91.570312 12.265625 91.503906 12.230469 91.4375 12.195312 C 91.296875 12.125 91.144531 12.046875 90.976562 11.960938 C 90.804688 11.882812 90.617188 11.796875 90.414062 11.699219 C 90.21875 11.605469 89.992188 11.515625 89.761719 11.421875 C 89.523438 11.328125 89.273438 11.234375 89.011719 11.132812 C 88.476562 10.953125 87.890625 10.753906 87.230469 10.601562 C 86.578125 10.4375 85.871094 10.289062 85.113281 10.203125 C 84.921875 10.167969 84.730469 10.160156 84.53125 10.136719 C 84.433594 10.132812 84.335938 10.121094 84.238281 10.113281 C 84.140625 10.105469 84.039062 10.097656 83.9375 10.097656 C 83.835938 10.089844 83.734375 10.082031 83.632812 10.074219 C 83.53125 10.070312 83.429688 10.074219 83.324219 10.070312 C 83.121094 10.070312 82.90625 10.058594 82.707031 10.070312 C 82.605469 10.070312 82.503906 10.070312 82.402344 10.074219 C 82.351562 10.074219 82.296875 10.078125 82.246094 10.082031 C 82.191406 10.082031 82.132812 10.085938 82.074219 10.085938 C 81.957031 10.09375 81.839844 10.097656 81.722656 10.105469 C 81.660156 10.109375 81.601562 10.113281 81.542969 10.117188 L 81.523438 10.121094 C 81.480469 10.121094 81.546875 10.121094 81.53125 10.121094 L 81.492188 10.128906 L 81.464844 10.128906 C 81.460938 10.128906 81.460938 10.128906 81.449219 10.128906 L 81.410156 10.132812 C 80.988281 10.179688 80.5625 10.242188 80.132812 10.339844 C 79.707031 10.4375 79.285156 10.5625 78.871094 10.710938 C 78.457031 10.871094 78.050781 11.058594 77.675781 11.28125 C 77.574219 11.332031 77.507812 11.386719 77.421875 11.433594 C 77.390625 11.449219 77.324219 11.496094 77.273438 11.53125 L 77.1875 11.589844 L 77.140625 11.621094 L 77.121094 11.632812 C 77.089844 11.652344 77.144531 11.621094 77.136719 11.628906 C 76.976562 11.75 76.832031 11.871094 76.695312 12.007812 L 76.597656 12.113281 L 76.5 12.222656 L 76.453125 12.273438 C 76.441406 12.292969 76.425781 12.3125 76.414062 12.332031 C 76.382812 12.371094 76.355469 12.40625 76.324219 12.441406 C 76.214844 12.601562 76.109375 12.765625 76.023438 12.9375 C 75.839844 13.285156 75.71875 13.667969 75.648438 14.074219 C 75.574219 14.480469 75.558594 14.910156 75.601562 15.34375 C 75.621094 15.558594 75.65625 15.773438 75.703125 15.988281 C 75.75 16.207031 75.820312 16.417969 75.894531 16.625 C 75.972656 16.832031 76.066406 17.039062 76.164062 17.238281 C 76.191406 17.285156 76.222656 17.332031 76.25 17.378906 C 76.277344 17.425781 76.300781 17.480469 76.332031 17.523438 L 76.421875 17.664062 L 76.515625 17.800781 C 76.53125 17.820312 76.554688 17.847656 76.5625 17.863281 L 76.605469 17.917969 L 76.644531 17.96875 C 76.660156 17.984375 76.664062 17.996094 76.695312 18.03125 L 76.847656 18.207031 L 76.875 18.230469 L 76.882812 18.246094 L 76.945312 18.3125 C 77.113281 18.484375 77.28125 18.648438 77.464844 18.789062 C 77.820312 19.085938 78.210938 19.320312 78.632812 19.496094 C 79.054688 19.667969 79.515625 19.789062 80.011719 19.847656 C 80.511719 19.898438 81.039062 19.894531 81.589844 19.835938 C 82.140625 19.773438 82.707031 19.65625 83.273438 19.5 C 83.660156 19.390625 84.042969 19.261719 84.429688 19.121094 C 80.402344 21.8125 76.941406 22.308594 74.042969 20.609375 L 73.9375 20.496094 C 73.917969 20.472656 73.875 20.421875 73.839844 20.378906 L 73.734375 20.246094 L 73.625 20.117188 C 73.59375 20.074219 73.566406 20.03125 73.535156 19.988281 C 72.574219 18.683594 72.050781 17.136719 71.96875 15.601562 C 71.957031 15.410156 71.957031 15.214844 71.957031 15.023438 Z M 71.957031 15.023438 " clip-rule="nonzero"/></clipPath></defs><g fill="#ffffff" fill-opacity="1"><g transform="translate(1.572579, 23.783409)"><g><path d="M 13.03125 -12.390625 L 5.484375 -12.390625 L 5.484375 -8.8125 L 12.4375 -8.8125 L 12.4375 -5.703125 L 5.484375 -5.703125 L 5.484375 0 L 1.546875 0 L 1.546875 -15.484375 L 13.03125 -15.484375 Z M 13.03125 -12.390625 "/></g></g></g><g fill="#ffffff" fill-opacity="1"><g transform="translate(14.929348, 23.783409)"><g><path d="M 10.890625 0 L 8.578125 -4.359375 L 5.484375 -4.359375 L 5.484375 0 L 1.546875 0 L 1.546875 -15.484375 L 8.46875 -15.484375 C 10.519531 -15.484375 12.101562 -15.015625 13.21875 -14.078125 C 14.34375 -13.140625 14.90625 -11.8125 14.90625 -10.09375 C 14.90625 -7.695312 13.972656 -6.035156 12.109375 -5.109375 L 15.359375 0 Z M 5.484375 -7.453125 L 8.46875 -7.453125 C 9.320312 -7.453125 9.984375 -7.664062 10.453125 -8.09375 C 10.929688 -8.519531 11.171875 -9.140625 11.171875 -9.953125 C 11.171875 -10.753906 10.929688 -11.359375 10.453125 -11.765625 C 9.984375 -12.179688 9.320312 -12.390625 8.46875 -12.390625 L 5.484375 -12.390625 Z M 5.484375 -7.453125 "/></g></g></g><g fill="#ffffff" fill-opacity="1"><g transform="translate(30.939772, 23.783409)"><g><path d="M 5.484375 0 L 1.546875 0 L 1.546875 -15.484375 L 5.484375 -15.484375 Z M 5.484375 0 "/></g></g></g><g fill="#ffffff" fill-opacity="1"><g transform="translate(37.971978, 23.783409)"><g><path d="M 7.5 -15.671875 C 9.8125 -15.671875 11.847656 -15.09375 13.609375 -13.9375 L 12.125 -10.859375 C 11.3125 -11.335938 10.441406 -11.726562 9.515625 -12.03125 C 8.585938 -12.332031 7.804688 -12.484375 7.171875 -12.484375 C 6.035156 -12.484375 5.46875 -12.101562 5.46875 -11.34375 C 5.46875 -10.863281 5.742188 -10.472656 6.296875 -10.171875 C 6.859375 -9.878906 7.539062 -9.625 8.34375 -9.40625 C 9.15625 -9.195312 9.960938 -8.941406 10.765625 -8.640625 C 11.566406 -8.335938 12.25 -7.847656 12.8125 -7.171875 C 13.375 -6.492188 13.65625 -5.640625 13.65625 -4.609375 C 13.65625 -3.117188 13.070312 -1.957031 11.90625 -1.125 C 10.738281 -0.289062 9.253906 0.125 7.453125 0.125 C 6.171875 0.125 4.898438 -0.09375 3.640625 -0.53125 C 2.390625 -0.96875 1.300781 -1.570312 0.375 -2.34375 L 1.90625 -5.375 C 2.6875 -4.695312 3.609375 -4.140625 4.671875 -3.703125 C 5.734375 -3.265625 6.675781 -3.046875 7.5 -3.046875 C 8.132812 -3.046875 8.628906 -3.160156 8.984375 -3.390625 C 9.335938 -3.617188 9.515625 -3.957031 9.515625 -4.40625 C 9.515625 -4.832031 9.3125 -5.1875 8.90625 -5.46875 C 8.5 -5.757812 7.992188 -5.972656 7.390625 -6.109375 C 6.785156 -6.253906 6.128906 -6.441406 5.421875 -6.671875 C 4.710938 -6.910156 4.054688 -7.171875 3.453125 -7.453125 C 2.847656 -7.734375 2.34375 -8.179688 1.9375 -8.796875 C 1.53125 -9.410156 1.328125 -10.144531 1.328125 -11 C 1.328125 -12.414062 1.890625 -13.546875 3.015625 -14.390625 C 4.148438 -15.242188 5.644531 -15.671875 7.5 -15.671875 Z M 7.5 -15.671875 "/></g></g></g><g fill="#ffffff" fill-opacity="1"><g transform="translate(52.213294, 23.783409)"><g><path d="M 16.65625 -0.484375 L 18.046875 1.953125 C 17.460938 2.484375 16.765625 2.898438 15.953125 3.203125 C 15.140625 3.503906 14.34375 3.65625 13.5625 3.65625 C 12.5 3.65625 11.53125 3.347656 10.65625 2.734375 C 9.789062 2.117188 9.097656 1.265625 8.578125 0.171875 C 6.265625 0.0976562 4.34375 -0.6875 2.8125 -2.1875 C 1.289062 -3.695312 0.53125 -5.554688 0.53125 -7.765625 C 0.53125 -10.023438 1.328125 -11.898438 2.921875 -13.390625 C 4.515625 -14.878906 6.503906 -15.625 8.890625 -15.625 C 11.296875 -15.625 13.296875 -14.875 14.890625 -13.375 C 16.484375 -11.875 17.28125 -10.003906 17.28125 -7.765625 C 17.28125 -6.066406 16.8125 -4.550781 15.875 -3.21875 C 14.9375 -1.894531 13.6875 -0.945312 12.125 -0.375 C 12.6875 0.332031 13.3125 0.6875 14 0.6875 C 14.757812 0.6875 15.644531 0.296875 16.65625 -0.484375 Z M 5.84375 -11 C 4.988281 -10.125 4.5625 -9.035156 4.5625 -7.734375 C 4.5625 -6.441406 4.988281 -5.347656 5.84375 -4.453125 C 6.707031 -3.566406 7.738281 -3.125 8.9375 -3.125 C 10.132812 -3.125 11.148438 -3.566406 11.984375 -4.453125 C 12.816406 -5.347656 13.234375 -6.441406 13.234375 -7.734375 C 13.234375 -9.035156 12.816406 -10.125 11.984375 -11 C 11.148438 -11.882812 10.132812 -12.328125 8.9375 -12.328125 C 7.726562 -12.328125 6.695312 -11.882812 5.84375 -11 Z M 5.84375 -11 "/></g></g></g><g fill="#ffffff" fill-opacity="1"><g transform="translate(70.12407, 23.783409)"><g/></g></g><g fill="#ffffff" fill-opacity="1"><g transform="translate(75.25449, 23.783409)"><g/></g></g><g fill="#ffffff" fill-opacity="1"><g transform="translate(80.384911, 23.783409)"><g/></g></g><g fill="#ffffff" fill-opacity="1"><g transform="translate(85.515332, 23.783409)"><g/></g></g><g fill="#ffffff" fill-opacity="1"><g transform="translate(90.645752, 23.783409)"><g/></g></g><g fill="#ffffff" fill-opacity="1"><g transform="translate(95.776173, 23.783409)"><g/></g></g><g fill="#ffffff" fill-opacity="1"><g transform="translate(100.906594, 23.783409)"><g/></g></g><g fill="#ffffff" fill-opacity="1"><g transform="translate(106.037014, 23.783409)"><g/></g></g><g clip-path="url(#id1)"><g clip-path="url(#id2)"><path fill="#ffffff" d="M 107.035156 18.453125 L 107.035156 18.4375 L 107.015625 18.4375 L 107.015625 18.453125 Z M 107.035156 18.453125 " fill-opacity="1" fill-rule="nonzero"/></g></g><g clip-path="url(#id3)"><g clip-path="url(#id4)"><path fill="#ffffff" d="M 108.015625 13.847656 L 108.015625 13.820312 L 108.003906 13.820312 L 108.003906 13.847656 Z M 108.015625 13.847656 " fill-opacity="1" fill-rule="nonzero"/></g></g><g clip-path="url(#id5)"><g clip-path="url(#id6)"><path fill="#ffffff" d="M 107.035156 18.453125 L 107.035156 18.4375 L 107.015625 18.4375 L 107.015625 18.453125 Z M 107.035156 18.453125 " fill-opacity="1" fill-rule="nonzero"/></g></g><g clip-path="url(#id7)"><g clip-path="url(#id8)"><path fill="#ffffff" d="M 108.015625 13.847656 L 108.015625 13.820312 L 108.003906 13.820312 L 108.003906 13.847656 Z M 108.015625 13.847656 " fill-opacity="1" fill-rule="nonzero"/></g></g><g clip-path="url(#id9)"><g clip-path="url(#id10)"><path fill="#ffffff" d="M 109.96875 21.125 L 109.96875 10.121094 L 93.179688 10.121094 L 93.179688 21.125 Z M 109.96875 21.125 " fill-opacity="1" fill-rule="nonzero"/></g></g><g clip-path="url(#id11)"><g clip-path="url(#id12)"><path fill="#ffffff" d="M 106.101562 23.347656 L 106.101562 9.75 L 74.042969 9.75 L 74.042969 23.347656 Z M 106.101562 23.347656 " fill-opacity="1" fill-rule="nonzero"/></g></g><g clip-path="url(#id13)"><g clip-path="url(#id14)"><path fill="#ffffff" d="M 92.496094 22.308594 L 92.496094 7.433594 L 71.957031 7.433594 L 71.957031 22.308594 Z M 92.496094 22.308594 " fill-opacity="1" fill-rule="nonzero"/></g></g></svg>